<svg width="1420.1" height="198" xmlns="http://www.w3.org/2000/svg">
    <g transform="matrix(1.3535626 0.33748105 -0.33748105 1.3535626 72.94592 14.447821)">
        <path fill="#111111" stroke="none" d="M 50 0 Q 53 45 66 50 Q 53 55 50 96 Q 47 55 34 50 Q 47 45 50 0 Z"/>
    </g>
    <g>
        <path fill="#111111" stroke="none" d="M 260.25 144 L 312.75 54 L 327.75 54 L 380.25 144 L 367.125 144 L 355.87497 123.375 L 284.625 123.375 L 273.375 144 L 260.25 144 Z M 290.25 114 L 350.24997 114 L 320.25 61.5 L 290.25 114 Z M 412.28436 54 L 472.51874 54 Q 485.70233 54 493.75894 55.171875 Q 501.8156 56.34375 505.97577 59.214844 Q 510.13593 62.085938 511.60077 67.06641 Q 513.0656 72.046875 513.0656 79.66406 L 513.0656 82.00781 Q 513.0656 89.03906 511.3957 94.10742 Q 509.72577 99.17578 504.97968 102.31055 Q 500.23358 105.44531 490.9172 106.734375 L 510.48746 144 L 499.2375 144 L 480.07733 107.55468 Q 478.90546 107.61327 477.6457 107.61327 Q 476.38593 107.61327 475.03827 107.61327 L 423.53433 107.61327 L 423.53433 144 L 412.28436 144 L 412.28436 54 Z M 423.53433 97.88672 L 473.28046 97.88672 Q 483.3 97.88672 489.07144 97.21289 Q 494.84296 96.53906 497.56757 94.839836 Q 500.29214 93.140625 501.0539 90.03516 Q 501.8156 86.92969 501.8156 82.00781 L 501.8156 79.66406 Q 501.8156 74.09766 500.76096 70.875 Q 499.70624 67.65234 496.54218 66.12891 Q 493.3781 64.60547 487.10858 64.166016 Q 480.83908 63.726563 470.35077 63.726563 L 423.53433 63.726563 L 423.53433 97.88672 Z M 547.38513 100.171875 L 547.38513 97.828125 Q 547.38513 85.875 548.557 77.759766 Q 549.7289 69.64453 552.6 64.546875 Q 555.47107 59.449223 560.42224 56.753906 Q 565.3734 54.058594 572.8734 53.0918 Q 580.3734 52.125 590.9203 52.125 L 614.53357 52.125 Q 626.6039 52.125 634.8949 53.26758 Q 643.1859 54.410156 648.2543 57.779297 Q 653.32263 61.148438 655.6078 67.68164 Q 657.89294 74.21484 657.89294 84.99609 L 646.64294 84.99609 Q 646.64294 76.5 645.1195 71.7832 Q 643.59607 67.06641 639.99255 64.95703 Q 636.38904 62.847656 630.1781 62.34961 Q 623.96716 61.851563 614.53357 61.851563 L 590.9203 61.851563 Q 582.5414 61.851563 576.7992 62.34961 Q 571.057 62.847656 567.4535 64.634766 Q 563.85 66.421875 561.9457 70.28906 Q 560.0414 74.15625 559.33826 80.83594 Q 558.63513 87.515625 558.63513 97.828125 L 558.63513 100.171875 Q 558.63513 110.132805 559.33826 116.69532 Q 560.0414 123.25781 561.9457 127.18359 Q 563.85 131.10938 567.4535 133.04297 Q 571.057 134.97656 576.7992 135.5625 Q 582.5414 136.14844 590.9203 136.14844 L 614.53357 136.14844 Q 623.96716 136.14844 630.1781 135.73828 Q 636.38904 135.32813 639.99255 133.33594 Q 643.59607 131.34375 645.1195 126.68554 Q 646.64294 122.02734 646.64294 113.58984 L 657.89294 113.58984 Q 657.89294 124.3711 655.6078 130.8164 Q 653.32263 137.26172 648.2543 140.51367 Q 643.1859 143.76563 634.8949 144.82031 Q 626.6039 145.875 614.53357 145.875 L 590.9203 145.875 Q 577.7367 145.875 569.2406 144.08789 Q 560.7445 142.30078 555.9691 137.4961 Q 551.1937 132.6914 549.2894 123.66797 Q 547.38513 114.64453 547.38513 100.171875 Z M 693.85315 144 L 693.85315 54 L 705.10315 54 L 705.10315 93.375 L 787.60315 93.375 L 787.60315 54 L 798.85315 54 L 798.85315 144 L 787.60315 144 L 787.60315 102.75 L 705.10315 102.75 L 705.10315 144 L 693.85315 144 Z M 838.3876 144 L 838.3876 54 L 849.6375 54 L 849.6375 134.625 L 920.8875 134.625 L 920.8875 144 L 838.3876 144 Z M 945.1875 144 L 997.68744 54 L 1012.6875 54 L 1065.1875 144 L 1052.0625 144 L 1040.8125 123.375 L 969.5625 123.375 L 958.3125 144 L 945.1875 144 Z M 975.1875 114 L 1035.1875 114 L 1005.1875 61.5 L 975.1875 114 Z M 1096.9875 144 L 1096.9875 54 L 1108.7063 54 L 1199.1165 130.11328 L 1199.2336 130.11328 L 1199.2336 54 L 1210.4836 54 L 1210.4836 144 L 1198.7649 144 L 1108.3547 67.24219 L 1108.2375 67.24219 L 1108.2375 144 L 1096.9875 144 Z M 1246.0336 100.171875 L 1246.0336 97.828125 Q 1246.0336 85.875 1247.2054 77.759766 Q 1248.3773 69.64453 1251.2484 64.546875 Q 1254.1195 59.449223 1259.0707 56.753906 Q 1264.0219 54.058594 1271.5219 53.0918 Q 1279.0219 52.125 1289.5687 52.125 L 1311.6 52.125 Q 1325.4281 52.125 1334.0707 53.179688 Q 1342.7133 54.234375 1347.3715 57.222656 Q 1352.0297 60.210938 1353.7875 65.92383 Q 1355.5453 71.63672 1355.5453 80.89453 L 1344.2953 80.89453 Q 1344.2953 73.921875 1343.0648 70.02539 Q 1341.8344 66.12891 1338.4359 64.40039 Q 1335.0375 62.67188 1328.5629 62.26172 Q 1322.0883 61.851563 1311.6 61.851563 L 1289.5687 61.851563 Q 1281.1898 61.851563 1275.4476 62.34961 Q 1269.7054 62.847656 1266.1019 64.634766 Q 1262.4984 66.421875 1260.5941 70.28906 Q 1258.6898 74.15625 1257.9867 80.83594 Q 1257.2836 87.515625 1257.2836 97.828125 L 1257.2836 100.171875 Q 1257.2836 110.132805 1257.9867 116.69532 Q 1258.6898 123.25781 1260.5941 127.18359 Q 1262.4984 131.10938 1266.1019 133.04297 Q 1269.7054 134.97656 1275.4476 135.5625 Q 1281.1898 136.14844 1289.5687 136.14844 L 1315.5258 136.14844 Q 1325.1937 136.14844 1331.1117 135.35742 Q 1337.0297 134.5664 1340.1058 131.95898 Q 1343.182 129.35156 1344.2367 123.990234 Q 1345.2914 118.62891 1345.2914 109.48828 L 1345.2914 106.03125 L 1302.225 106.03125 L 1302.225 96.65625 L 1356.5414 96.65625 L 1356.5414 109.48828 Q 1356.5414 120.91406 1354.6078 128.0625 Q 1352.6742 135.21094 1348.0746 139.10742 Q 1343.475 143.0039 1335.5355 144.43945 Q 1327.5961 145.875 1315.5258 145.875 L 1289.5687 145.875 Q 1276.3851 145.875 1267.889 144.08789 Q 1259.393 142.30078 1254.6176 137.4961 Q 1249.8422 132.6914 1247.9379 123.66797 Q 1246.0336 114.64453 1246.0336 100.171875 Z"/>
    </g>
</svg>
