<svg xmlns="http://www.w3.org/2000/svg" xmlns:inkscape="http://www.inkscape.org/namespaces/inkscape" width="841mm" height="594mm" viewBox="-34100 -27060 168200 118800" font-family="Helvetica, Arial, sans-serif">
<defs><pattern id="poche" patternUnits="userSpaceOnUse" width="240" height="240" patternTransform="rotate(45)"><rect width="240" height="240" fill="#e9e4db"/><line x1="0" y1="0" x2="0" y2="240" stroke="#b9b1a4" stroke-width="25.2"/></pattern></defs>
<rect x="-34100" y="-27060" width="168200" height="118800" fill="#ffffff"/>
<g id="A-FLOR" inkscape:groupmode="layer" inkscape:label="A-FLOR">
<polygon points="0,0 26000,0 26000,26000 0,26000" fill="#fbfaf7"/>
<polygon points="26000,0 52000,0 52000,26000 26000,26000" fill="#fbfaf7"/>
<polygon points="52000,0 78000,0 78000,26000 52000,26000" fill="#fbfaf7"/>
<polygon points="78000,0 100000,0 100000,14000 78000,14000" fill="#fbfaf7"/>
<polygon points="78000,14000 100000,14000 100000,26000 78000,26000" fill="#fbfaf7"/>
<polygon points="0,26000 100000,26000 100000,32000 0,32000" fill="#fbfaf7"/>
<polygon points="0,32000 30000,32000 30000,60000 0,60000" fill="#fbfaf7"/>
<polygon points="30000,32000 48000,32000 48000,60000 30000,60000" fill="#fbfaf7"/>
<polygon points="48000,32000 70000,32000 70000,60000 48000,60000" fill="#fbfaf7"/>
<polygon points="70000,32000 76000,32000 76000,60000 70000,60000" fill="#fbfaf7"/>
<polygon points="76000,32000 86000,32000 86000,42000 76000,42000" fill="#fbfaf7"/>
<polygon points="76000,42000 86000,42000 86000,52000 76000,52000" fill="#fbfaf7"/>
<polygon points="76000,52000 86000,52000 86000,60000 76000,60000" fill="#fbfaf7"/>
<polygon points="86000,32000 100000,32000 100000,60000 86000,60000" fill="#fbfaf7"/>
</g>
<g id="A-COLS" inkscape:groupmode="layer" inkscape:label="A-COLS">
<polygon points="8700,8700 9300,8700 9300,9300 8700,9300" fill="#4a4a4a" stroke="#1b1b1b" stroke-width="36"/>
<polygon points="17400,8700 18000,8700 18000,9300 17400,9300" fill="#4a4a4a" stroke="#1b1b1b" stroke-width="36"/>
<polygon points="8700,17400 9300,17400 9300,18000 8700,18000" fill="#4a4a4a" stroke="#1b1b1b" stroke-width="36"/>
<polygon points="17400,17400 18000,17400 18000,18000 17400,18000" fill="#4a4a4a" stroke="#1b1b1b" stroke-width="36"/>
<polygon points="34700,8700 35300,8700 35300,9300 34700,9300" fill="#4a4a4a" stroke="#1b1b1b" stroke-width="36"/>
<polygon points="43400,8700 44000,8700 44000,9300 43400,9300" fill="#4a4a4a" stroke="#1b1b1b" stroke-width="36"/>
<polygon points="34700,17400 35300,17400 35300,18000 34700,18000" fill="#4a4a4a" stroke="#1b1b1b" stroke-width="36"/>
<polygon points="43400,17400 44000,17400 44000,18000 43400,18000" fill="#4a4a4a" stroke="#1b1b1b" stroke-width="36"/>
<polygon points="60700,8700 61300,8700 61300,9300 60700,9300" fill="#4a4a4a" stroke="#1b1b1b" stroke-width="36"/>
<polygon points="69400,8700 70000,8700 70000,9300 69400,9300" fill="#4a4a4a" stroke="#1b1b1b" stroke-width="36"/>
<polygon points="60700,17400 61300,17400 61300,18000 60700,18000" fill="#4a4a4a" stroke="#1b1b1b" stroke-width="36"/>
<polygon points="69400,17400 70000,17400 70000,18000 69400,18000" fill="#4a4a4a" stroke="#1b1b1b" stroke-width="36"/>
<polygon points="10000,41000 10600,41000 10600,41600 10000,41600" fill="#4a4a4a" stroke="#1b1b1b" stroke-width="36"/>
<polygon points="10000,51000 10600,51000 10600,51600 10000,51600" fill="#4a4a4a" stroke="#1b1b1b" stroke-width="36"/>
<polygon points="54000,41000 54600,41000 54600,41600 54000,41600" fill="#4a4a4a" stroke="#1b1b1b" stroke-width="36"/>
<polygon points="54000,51000 54600,51000 54600,51600 54000,51600" fill="#4a4a4a" stroke="#1b1b1b" stroke-width="36"/>
<polygon points="20000,41000 20600,41000 20600,41600 20000,41600" fill="#4a4a4a" stroke="#1b1b1b" stroke-width="36"/>
<polygon points="20000,51000 20600,51000 20600,51600 20000,51600" fill="#4a4a4a" stroke="#1b1b1b" stroke-width="36"/>
<polygon points="66000,41000 66600,41000 66600,41600 66000,41600" fill="#4a4a4a" stroke="#1b1b1b" stroke-width="36"/>
<polygon points="66000,51000 66600,51000 66600,51600 66000,51600" fill="#4a4a4a" stroke="#1b1b1b" stroke-width="36"/>
</g>
<g id="A-FURN" inkscape:groupmode="layer" inkscape:label="A-FURN">
<path d="M 77646.48,41900 L 77353.52,41900 A 23.52 23.52 0 0 1 77330,41876.48 L 77330,41755.52 A 23.52 23.52 0 0 1 77353.52,41732 L 77646.48,41732 A 23.52 23.52 0 0 1 77670,41755.52 L 77670,41876.48 A 23.52 23.52 0 0 1 77646.48,41900 Z" fill="#f4f2ee" stroke="#6c6864" stroke-width="36"/>
<path d="M 77500,41238.5 A 121.51 121.51 0 0 1 77602.98,41295.52 A 373.97 373.97 0 0 1 77602.98,41692.48 A 121.51 121.51 0 0 1 77500,41749.5 A 121.51 121.51 0 0 1 77397.02,41692.48 A 373.97 373.97 0 0 1 77397.02,41295.52 A 121.51 121.51 0 0 1 77500,41238.5 Z" fill="#ffffff" stroke="#6c6864" stroke-width="36"/>
<path d="M 77500,41276.9 A 91.53 91.53 0 0 1 77577.99,41320.51 A 294.71 294.71 0 0 1 77577.99,41629.09 A 91.53 91.53 0 0 1 77500,41672.7 A 91.53 91.53 0 0 1 77422.01,41629.09 A 294.71 294.71 0 0 1 77422.01,41320.51 A 91.53 91.53 0 0 1 77500,41276.9 Z" fill="#ffffff" stroke="#a8a29a" stroke-width="26"/>
<line x1="77568" y1="41717.18" x2="77568" y2="41687.52" stroke="#a8a29a" stroke-width="26"/>
<line x1="77432" y1="41717.18" x2="77432" y2="41687.52" stroke="#a8a29a" stroke-width="26"/>
<circle cx="77500" cy="41816" r="16" fill="#a8a29a" stroke="#a8a29a" stroke-width="26"/>
<path d="M 81146.48,41900 L 80853.52,41900 A 23.52 23.52 0 0 1 80830,41876.48 L 80830,41755.52 A 23.52 23.52 0 0 1 80853.52,41732 L 81146.48,41732 A 23.52 23.52 0 0 1 81170,41755.52 L 81170,41876.48 A 23.52 23.52 0 0 1 81146.48,41900 Z" fill="#f4f2ee" stroke="#6c6864" stroke-width="36"/>
<path d="M 81000,41238.5 A 121.51 121.51 0 0 1 81102.98,41295.52 A 373.97 373.97 0 0 1 81102.98,41692.48 A 121.51 121.51 0 0 1 81000,41749.5 A 121.51 121.51 0 0 1 80897.02,41692.48 A 373.97 373.97 0 0 1 80897.02,41295.52 A 121.51 121.51 0 0 1 81000,41238.5 Z" fill="#ffffff" stroke="#6c6864" stroke-width="36"/>
<path d="M 81000,41276.9 A 91.53 91.53 0 0 1 81077.99,41320.51 A 294.71 294.71 0 0 1 81077.99,41629.09 A 91.53 91.53 0 0 1 81000,41672.7 A 91.53 91.53 0 0 1 80922.01,41629.09 A 294.71 294.71 0 0 1 80922.01,41320.51 A 91.53 91.53 0 0 1 81000,41276.9 Z" fill="#ffffff" stroke="#a8a29a" stroke-width="26"/>
<line x1="81068" y1="41717.18" x2="81068" y2="41687.52" stroke="#a8a29a" stroke-width="26"/>
<line x1="80932" y1="41717.18" x2="80932" y2="41687.52" stroke="#a8a29a" stroke-width="26"/>
<circle cx="81000" cy="41816" r="16" fill="#a8a29a" stroke="#a8a29a" stroke-width="26"/>
<path d="M 84646.48,41900 L 84353.52,41900 A 23.52 23.52 0 0 1 84330,41876.48 L 84330,41755.52 A 23.52 23.52 0 0 1 84353.52,41732 L 84646.48,41732 A 23.52 23.52 0 0 1 84670,41755.52 L 84670,41876.48 A 23.52 23.52 0 0 1 84646.48,41900 Z" fill="#f4f2ee" stroke="#6c6864" stroke-width="36"/>
<path d="M 84500,41238.5 A 121.51 121.51 0 0 1 84602.98,41295.52 A 373.97 373.97 0 0 1 84602.98,41692.48 A 121.51 121.51 0 0 1 84500,41749.5 A 121.51 121.51 0 0 1 84397.02,41692.48 A 373.97 373.97 0 0 1 84397.02,41295.52 A 121.51 121.51 0 0 1 84500,41238.5 Z" fill="#ffffff" stroke="#6c6864" stroke-width="36"/>
<path d="M 84500,41276.9 A 91.53 91.53 0 0 1 84577.99,41320.51 A 294.71 294.71 0 0 1 84577.99,41629.09 A 91.53 91.53 0 0 1 84500,41672.7 A 91.53 91.53 0 0 1 84422.01,41629.09 A 294.71 294.71 0 0 1 84422.01,41320.51 A 91.53 91.53 0 0 1 84500,41276.9 Z" fill="#ffffff" stroke="#a8a29a" stroke-width="26"/>
<line x1="84568" y1="41717.18" x2="84568" y2="41687.52" stroke="#a8a29a" stroke-width="26"/>
<line x1="84432" y1="41717.18" x2="84432" y2="41687.52" stroke="#a8a29a" stroke-width="26"/>
<circle cx="84500" cy="41816" r="16" fill="#a8a29a" stroke="#a8a29a" stroke-width="26"/>
<path d="M 78730,32100 L 79270,32100 A 30 30 0 0 1 79300,32130 L 79300,32570 A 30 30 0 0 1 79270,32600 L 78730,32600 A 30 30 0 0 1 78700,32570 L 78700,32130 A 30 30 0 0 1 78730,32100 Z" fill="#f4f2ee" stroke="#6c6864" stroke-width="36"/>
<path d="M 79228,32390 A 141.2 141.2 0 0 1 79171.2,32503.2 A 286.41 286.41 0 0 1 78828.8,32503.2 A 141.2 141.2 0 0 1 78772,32390 A 141.2 141.2 0 0 1 78828.8,32276.8 A 286.41 286.41 0 0 1 79171.2,32276.8 A 141.2 141.2 0 0 1 79228,32390 Z" fill="#ffffff" stroke="#6c6864" stroke-width="36"/>
<path d="M 79194,32390 A 109.25 109.25 0 0 1 79147.46,32479.46 A 256.89 256.89 0 0 1 78852.54,32479.46 A 109.25 109.25 0 0 1 78806,32390 A 109.25 109.25 0 0 1 78852.54,32300.54 A 256.89 256.89 0 0 1 79147.46,32300.54 A 109.25 109.25 0 0 1 79194,32390 Z" fill="#ffffff" stroke="#a8a29a" stroke-width="26"/>
<circle cx="79000" cy="32157.5" r="17.5" fill="#a8a29a" stroke="#a8a29a" stroke-width="26"/>
<line x1="79000" y1="32157.5" x2="79000" y2="32255" stroke="#a8a29a" stroke-width="26"/>
<circle cx="79000" cy="32407" r="15" fill="#a8a29a" stroke="#a8a29a" stroke-width="26"/>
<path d="M 82730,32100 L 83270,32100 A 30 30 0 0 1 83300,32130 L 83300,32570 A 30 30 0 0 1 83270,32600 L 82730,32600 A 30 30 0 0 1 82700,32570 L 82700,32130 A 30 30 0 0 1 82730,32100 Z" fill="#f4f2ee" stroke="#6c6864" stroke-width="36"/>
<path d="M 83228,32390 A 141.2 141.2 0 0 1 83171.2,32503.2 A 286.41 286.41 0 0 1 82828.8,32503.2 A 141.2 141.2 0 0 1 82772,32390 A 141.2 141.2 0 0 1 82828.8,32276.8 A 286.41 286.41 0 0 1 83171.2,32276.8 A 141.2 141.2 0 0 1 83228,32390 Z" fill="#ffffff" stroke="#6c6864" stroke-width="36"/>
<path d="M 83194,32390 A 109.25 109.25 0 0 1 83147.46,32479.46 A 256.89 256.89 0 0 1 82852.54,32479.46 A 109.25 109.25 0 0 1 82806,32390 A 109.25 109.25 0 0 1 82852.54,32300.54 A 256.89 256.89 0 0 1 83147.46,32300.54 A 109.25 109.25 0 0 1 83194,32390 Z" fill="#ffffff" stroke="#a8a29a" stroke-width="26"/>
<circle cx="83000" cy="32157.5" r="17.5" fill="#a8a29a" stroke="#a8a29a" stroke-width="26"/>
<line x1="83000" y1="32157.5" x2="83000" y2="32255" stroke="#a8a29a" stroke-width="26"/>
<circle cx="83000" cy="32407" r="15" fill="#a8a29a" stroke="#a8a29a" stroke-width="26"/>
<path d="M 77646.48,51900 L 77353.52,51900 A 23.52 23.52 0 0 1 77330,51876.48 L 77330,51755.52 A 23.52 23.52 0 0 1 77353.52,51732 L 77646.48,51732 A 23.52 23.52 0 0 1 77670,51755.52 L 77670,51876.48 A 23.52 23.52 0 0 1 77646.48,51900 Z" fill="#f4f2ee" stroke="#6c6864" stroke-width="36"/>
<path d="M 77500,51238.5 A 121.51 121.51 0 0 1 77602.98,51295.52 A 373.97 373.97 0 0 1 77602.98,51692.48 A 121.51 121.51 0 0 1 77500,51749.5 A 121.51 121.51 0 0 1 77397.02,51692.48 A 373.97 373.97 0 0 1 77397.02,51295.52 A 121.51 121.51 0 0 1 77500,51238.5 Z" fill="#ffffff" stroke="#6c6864" stroke-width="36"/>
<path d="M 77500,51276.9 A 91.53 91.53 0 0 1 77577.99,51320.51 A 294.71 294.71 0 0 1 77577.99,51629.09 A 91.53 91.53 0 0 1 77500,51672.7 A 91.53 91.53 0 0 1 77422.01,51629.09 A 294.71 294.71 0 0 1 77422.01,51320.51 A 91.53 91.53 0 0 1 77500,51276.9 Z" fill="#ffffff" stroke="#a8a29a" stroke-width="26"/>
<line x1="77568" y1="51717.18" x2="77568" y2="51687.52" stroke="#a8a29a" stroke-width="26"/>
<line x1="77432" y1="51717.18" x2="77432" y2="51687.52" stroke="#a8a29a" stroke-width="26"/>
<circle cx="77500" cy="51816" r="16" fill="#a8a29a" stroke="#a8a29a" stroke-width="26"/>
<path d="M 81146.48,51900 L 80853.52,51900 A 23.52 23.52 0 0 1 80830,51876.48 L 80830,51755.52 A 23.52 23.52 0 0 1 80853.52,51732 L 81146.48,51732 A 23.52 23.52 0 0 1 81170,51755.52 L 81170,51876.48 A 23.52 23.52 0 0 1 81146.48,51900 Z" fill="#f4f2ee" stroke="#6c6864" stroke-width="36"/>
<path d="M 81000,51238.5 A 121.51 121.51 0 0 1 81102.98,51295.52 A 373.97 373.97 0 0 1 81102.98,51692.48 A 121.51 121.51 0 0 1 81000,51749.5 A 121.51 121.51 0 0 1 80897.02,51692.48 A 373.97 373.97 0 0 1 80897.02,51295.52 A 121.51 121.51 0 0 1 81000,51238.5 Z" fill="#ffffff" stroke="#6c6864" stroke-width="36"/>
<path d="M 81000,51276.9 A 91.53 91.53 0 0 1 81077.99,51320.51 A 294.71 294.71 0 0 1 81077.99,51629.09 A 91.53 91.53 0 0 1 81000,51672.7 A 91.53 91.53 0 0 1 80922.01,51629.09 A 294.71 294.71 0 0 1 80922.01,51320.51 A 91.53 91.53 0 0 1 81000,51276.9 Z" fill="#ffffff" stroke="#a8a29a" stroke-width="26"/>
<line x1="81068" y1="51717.18" x2="81068" y2="51687.52" stroke="#a8a29a" stroke-width="26"/>
<line x1="80932" y1="51717.18" x2="80932" y2="51687.52" stroke="#a8a29a" stroke-width="26"/>
<circle cx="81000" cy="51816" r="16" fill="#a8a29a" stroke="#a8a29a" stroke-width="26"/>
<path d="M 84646.48,51900 L 84353.52,51900 A 23.52 23.52 0 0 1 84330,51876.48 L 84330,51755.52 A 23.52 23.52 0 0 1 84353.52,51732 L 84646.48,51732 A 23.52 23.52 0 0 1 84670,51755.52 L 84670,51876.48 A 23.52 23.52 0 0 1 84646.48,51900 Z" fill="#f4f2ee" stroke="#6c6864" stroke-width="36"/>
<path d="M 84500,51238.5 A 121.51 121.51 0 0 1 84602.98,51295.52 A 373.97 373.97 0 0 1 84602.98,51692.48 A 121.51 121.51 0 0 1 84500,51749.5 A 121.51 121.51 0 0 1 84397.02,51692.48 A 373.97 373.97 0 0 1 84397.02,51295.52 A 121.51 121.51 0 0 1 84500,51238.5 Z" fill="#ffffff" stroke="#6c6864" stroke-width="36"/>
<path d="M 84500,51276.9 A 91.53 91.53 0 0 1 84577.99,51320.51 A 294.71 294.71 0 0 1 84577.99,51629.09 A 91.53 91.53 0 0 1 84500,51672.7 A 91.53 91.53 0 0 1 84422.01,51629.09 A 294.71 294.71 0 0 1 84422.01,51320.51 A 91.53 91.53 0 0 1 84500,51276.9 Z" fill="#ffffff" stroke="#a8a29a" stroke-width="26"/>
<line x1="84568" y1="51717.18" x2="84568" y2="51687.52" stroke="#a8a29a" stroke-width="26"/>
<line x1="84432" y1="51717.18" x2="84432" y2="51687.52" stroke="#a8a29a" stroke-width="26"/>
<circle cx="84500" cy="51816" r="16" fill="#a8a29a" stroke="#a8a29a" stroke-width="26"/>
<path d="M 78730,42100 L 79270,42100 A 30 30 0 0 1 79300,42130 L 79300,42570 A 30 30 0 0 1 79270,42600 L 78730,42600 A 30 30 0 0 1 78700,42570 L 78700,42130 A 30 30 0 0 1 78730,42100 Z" fill="#f4f2ee" stroke="#6c6864" stroke-width="36"/>
<path d="M 79228,42390 A 141.2 141.2 0 0 1 79171.2,42503.2 A 286.41 286.41 0 0 1 78828.8,42503.2 A 141.2 141.2 0 0 1 78772,42390 A 141.2 141.2 0 0 1 78828.8,42276.8 A 286.41 286.41 0 0 1 79171.2,42276.8 A 141.2 141.2 0 0 1 79228,42390 Z" fill="#ffffff" stroke="#6c6864" stroke-width="36"/>
<path d="M 79194,42390 A 109.25 109.25 0 0 1 79147.46,42479.46 A 256.89 256.89 0 0 1 78852.54,42479.46 A 109.25 109.25 0 0 1 78806,42390 A 109.25 109.25 0 0 1 78852.54,42300.54 A 256.89 256.89 0 0 1 79147.46,42300.54 A 109.25 109.25 0 0 1 79194,42390 Z" fill="#ffffff" stroke="#a8a29a" stroke-width="26"/>
<circle cx="79000" cy="42157.5" r="17.5" fill="#a8a29a" stroke="#a8a29a" stroke-width="26"/>
<line x1="79000" y1="42157.5" x2="79000" y2="42255" stroke="#a8a29a" stroke-width="26"/>
<circle cx="79000" cy="42407" r="15" fill="#a8a29a" stroke="#a8a29a" stroke-width="26"/>
<path d="M 82730,42100 L 83270,42100 A 30 30 0 0 1 83300,42130 L 83300,42570 A 30 30 0 0 1 83270,42600 L 82730,42600 A 30 30 0 0 1 82700,42570 L 82700,42130 A 30 30 0 0 1 82730,42100 Z" fill="#f4f2ee" stroke="#6c6864" stroke-width="36"/>
<path d="M 83228,42390 A 141.2 141.2 0 0 1 83171.2,42503.2 A 286.41 286.41 0 0 1 82828.8,42503.2 A 141.2 141.2 0 0 1 82772,42390 A 141.2 141.2 0 0 1 82828.8,42276.8 A 286.41 286.41 0 0 1 83171.2,42276.8 A 141.2 141.2 0 0 1 83228,42390 Z" fill="#ffffff" stroke="#6c6864" stroke-width="36"/>
<path d="M 83194,42390 A 109.25 109.25 0 0 1 83147.46,42479.46 A 256.89 256.89 0 0 1 82852.54,42479.46 A 109.25 109.25 0 0 1 82806,42390 A 109.25 109.25 0 0 1 82852.54,42300.54 A 256.89 256.89 0 0 1 83147.46,42300.54 A 109.25 109.25 0 0 1 83194,42390 Z" fill="#ffffff" stroke="#a8a29a" stroke-width="26"/>
<circle cx="83000" cy="42157.5" r="17.5" fill="#a8a29a" stroke="#a8a29a" stroke-width="26"/>
<line x1="83000" y1="42157.5" x2="83000" y2="42255" stroke="#a8a29a" stroke-width="26"/>
<circle cx="83000" cy="42407" r="15" fill="#a8a29a" stroke="#a8a29a" stroke-width="26"/>
<polygon points="87000,32100 93000,32100 93000,32900 87000,32900" fill="#f4f2ee" stroke="#6c6864" stroke-width="36"/>
<line x1="87000" y1="32136" x2="93000" y2="32136" stroke="#a8a29a" stroke-width="26"/>
<line x1="87000" y1="32852" x2="93000" y2="32852" stroke="#a8a29a" stroke-width="26"/>
<line x1="87600" y1="32136" x2="87600" y2="32852" stroke="#a8a29a" stroke-width="26"/>
<line x1="88200" y1="32136" x2="88200" y2="32852" stroke="#a8a29a" stroke-width="26"/>
<line x1="88800" y1="32136" x2="88800" y2="32852" stroke="#a8a29a" stroke-width="26"/>
<line x1="89400" y1="32136" x2="89400" y2="32852" stroke="#a8a29a" stroke-width="26"/>
<line x1="90000" y1="32136" x2="90000" y2="32852" stroke="#a8a29a" stroke-width="26"/>
<line x1="90600" y1="32136" x2="90600" y2="32852" stroke="#a8a29a" stroke-width="26"/>
<line x1="91200" y1="32136" x2="91200" y2="32852" stroke="#a8a29a" stroke-width="26"/>
<line x1="91800" y1="32136" x2="91800" y2="32852" stroke="#a8a29a" stroke-width="26"/>
<line x1="92400" y1="32136" x2="92400" y2="32852" stroke="#a8a29a" stroke-width="26"/>
<path d="M 89019.2,45000 L 90580.8,45000 A 19.2 19.2 0 0 1 90600,45019.2 L 90600,46580.8 A 19.2 19.2 0 0 1 90580.8,46600 L 89019.2,46600 A 19.2 19.2 0 0 1 89000,46580.8 L 89000,45019.2 A 19.2 19.2 0 0 1 89019.2,45000 Z" fill="#f4f2ee" stroke="#6c6864" stroke-width="36"/>
<path d="M 89060.8,45048 L 90539.2,45048 A 12.8 12.8 0 0 1 90552,45060.8 L 90552,46539.2 A 12.8 12.8 0 0 1 90539.2,46552 L 89060.8,46552 A 12.8 12.8 0 0 1 89048,46539.2 L 89048,45060.8 A 12.8 12.8 0 0 1 89060.8,45048 Z" fill="none" stroke="#a8a29a" stroke-width="26"/>
<path d="M 93019.2,45000 L 94580.8,45000 A 19.2 19.2 0 0 1 94600,45019.2 L 94600,46580.8 A 19.2 19.2 0 0 1 94580.8,46600 L 93019.2,46600 A 19.2 19.2 0 0 1 93000,46580.8 L 93000,45019.2 A 19.2 19.2 0 0 1 93019.2,45000 Z" fill="#f4f2ee" stroke="#6c6864" stroke-width="36"/>
<path d="M 93060.8,45048 L 94539.2,45048 A 12.8 12.8 0 0 1 94552,45060.8 L 94552,46539.2 A 12.8 12.8 0 0 1 94539.2,46552 L 93060.8,46552 A 12.8 12.8 0 0 1 93048,46539.2 L 93048,45060.8 A 12.8 12.8 0 0 1 93060.8,45048 Z" fill="none" stroke="#a8a29a" stroke-width="26"/>
<path d="M 33008,38000 L 34792,38000 A 8 8 0 0 1 34800,38008 L 34800,38792 A 8 8 0 0 1 34792,38800 L 33008,38800 A 8 8 0 0 1 33000,38792 L 33000,38008 A 8 8 0 0 1 33008,38000 Z" fill="#f4f2ee" stroke="#6c6864" stroke-width="36"/>
<path d="M 33034.4,38028 L 34765.6,38028 A 6.4 6.4 0 0 1 34772,38034.4 L 34772,38765.6 A 6.4 6.4 0 0 1 34765.6,38772 L 33034.4,38772 A 6.4 6.4 0 0 1 33028,38765.6 L 33028,38034.4 A 6.4 6.4 0 0 1 33034.4,38028 Z" fill="none" stroke="#a8a29a" stroke-width="26"/>
<line x1="33028" y1="38096" x2="34772" y2="38096" stroke="#a8a29a" stroke-width="26"/>
<polygon points="34260,38160 34710,38160 34710,38736 34260,38736" fill="none" stroke="#a8a29a" stroke-width="26" stroke-dasharray="216 144"/>
<line x1="34260" y1="38352" x2="34710" y2="38352" stroke="#a8a29a" stroke-width="26" stroke-dasharray="216 144"/>
<line x1="34260" y1="38544" x2="34710" y2="38544" stroke="#a8a29a" stroke-width="26" stroke-dasharray="216 144"/>
<path d="M 33397.6,38152 L 33862.4,38152 A 19.6 19.6 0 0 1 33882,38171.6 L 33882,38188.4 A 19.6 19.6 0 0 1 33862.4,38208 L 33397.6,38208 A 19.6 19.6 0 0 1 33378,38188.4 L 33378,38171.6 A 19.6 19.6 0 0 1 33397.6,38152 Z" fill="#ffffff" stroke="#a8a29a" stroke-width="26"/>
<path d="M 35290,39240 L 35610,39240 A 60 60 0 0 1 35670,39300 L 35670,39640 A 60 60 0 0 1 35610,39700 L 35290,39700 A 60 60 0 0 1 35230,39640 L 35230,39300 A 60 60 0 0 1 35290,39240 Z" fill="#ffffff" stroke="#6c6864" stroke-width="36"/>
<path d="M 35230,39200 L 35670,39200 A 30 30 0 0 1 35700,39230 A 30 30 0 0 1 35670,39260 L 35230,39260 A 30 30 0 0 1 35200,39230 A 30 30 0 0 1 35230,39200 Z" fill="#f4f2ee" stroke="#6c6864" stroke-width="36"/>
<path d="M 33090,40540 L 33410,40540 A 60 60 0 0 1 33470,40600 L 33470,40940 A 60 60 0 0 1 33410,41000 L 33090,41000 A 60 60 0 0 1 33030,40940 L 33030,40600 A 60 60 0 0 1 33090,40540 Z" fill="#ffffff" stroke="#6c6864" stroke-width="36"/>
<path d="M 33030,40500 L 33470,40500 A 30 30 0 0 1 33500,40530 A 30 30 0 0 1 33470,40560 L 33030,40560 A 30 30 0 0 1 33000,40530 A 30 30 0 0 1 33030,40500 Z" fill="#f4f2ee" stroke="#6c6864" stroke-width="36"/>
<path d="M 44592.13,55249.71 A 100.51 100.51 0 0 1 44686,55350 A 100.51 100.51 0 0 1 44592.13,55450.29 A 120.7 120.7 0 0 1 44450.29,55592.13 A 100.51 100.51 0 0 1 44350,55686 A 100.51 100.51 0 0 1 44249.71,55592.13 A 120.7 120.7 0 0 1 44107.87,55450.29 A 100.51 100.51 0 0 1 44014,55350 A 100.51 100.51 0 0 1 44107.87,55249.71 A 120.7 120.7 0 0 1 44249.71,55107.87 A 100.51 100.51 0 0 1 44350,55014 A 100.51 100.51 0 0 1 44450.29,55107.87 A 120.7 120.7 0 0 1 44592.13,55249.71 Z" fill="#eef3e7" stroke="#6c6864" stroke-width="36"/>
<circle cx="44350" cy="55350" r="141.12" fill="none" stroke="#a8a29a" stroke-width="26"/>
<line x1="44491.12" y1="55350" x2="44585.2" y2="55350" stroke="#a8a29a" stroke-width="26"/>
<line x1="44449.79" y1="55449.79" x2="44516.31" y2="55516.31" stroke="#a8a29a" stroke-width="26"/>
<line x1="44350" y1="55491.12" x2="44350" y2="55585.2" stroke="#a8a29a" stroke-width="26"/>
<line x1="44250.21" y1="55449.79" x2="44183.69" y2="55516.31" stroke="#a8a29a" stroke-width="26"/>
<line x1="44208.88" y1="55350" x2="44114.8" y2="55350" stroke="#a8a29a" stroke-width="26"/>
<line x1="44250.21" y1="55250.21" x2="44183.69" y2="55183.69" stroke="#a8a29a" stroke-width="26"/>
<line x1="44350" y1="55208.88" x2="44350" y2="55114.8" stroke="#a8a29a" stroke-width="26"/>
<line x1="44449.79" y1="55250.21" x2="44516.31" y2="55183.69" stroke="#a8a29a" stroke-width="26"/>
<circle cx="44350" cy="55350" r="20.16" fill="#6c6864" stroke="#6c6864" stroke-width="36"/>
<path d="M 19010,20000 L 20790,20000 A 10 10 0 0 1 20800,20010 L 20800,20490 A 10 10 0 0 1 20790,20500 L 19010,20500 A 10 10 0 0 1 19000,20490 L 19000,20010 A 10 10 0 0 1 19010,20000 Z" fill="#f4f2ee" stroke="#6c6864" stroke-width="36"/>
<line x1="19000" y1="20125" x2="20800" y2="20125" stroke="#a8a29a" stroke-width="26"/>
<line x1="19000" y1="20250" x2="20800" y2="20250" stroke="#a8a29a" stroke-width="26"/>
<line x1="19000" y1="20375" x2="20800" y2="20375" stroke="#a8a29a" stroke-width="26"/>
<path d="M 23592.13,2249.71 A 100.51 100.51 0 0 1 23686,2350 A 100.51 100.51 0 0 1 23592.13,2450.29 A 120.7 120.7 0 0 1 23450.29,2592.13 A 100.51 100.51 0 0 1 23350,2686 A 100.51 100.51 0 0 1 23249.71,2592.13 A 120.7 120.7 0 0 1 23107.87,2450.29 A 100.51 100.51 0 0 1 23014,2350 A 100.51 100.51 0 0 1 23107.87,2249.71 A 120.7 120.7 0 0 1 23249.71,2107.87 A 100.51 100.51 0 0 1 23350,2014 A 100.51 100.51 0 0 1 23450.29,2107.87 A 120.7 120.7 0 0 1 23592.13,2249.71 Z" fill="#eef3e7" stroke="#6c6864" stroke-width="36"/>
<circle cx="23350" cy="2350" r="141.12" fill="none" stroke="#a8a29a" stroke-width="26"/>
<line x1="23491.12" y1="2350" x2="23585.2" y2="2350" stroke="#a8a29a" stroke-width="26"/>
<line x1="23449.79" y1="2449.79" x2="23516.31" y2="2516.31" stroke="#a8a29a" stroke-width="26"/>
<line x1="23350" y1="2491.12" x2="23350" y2="2585.2" stroke="#a8a29a" stroke-width="26"/>
<line x1="23250.21" y1="2449.79" x2="23183.69" y2="2516.31" stroke="#a8a29a" stroke-width="26"/>
<line x1="23208.88" y1="2350" x2="23114.8" y2="2350" stroke="#a8a29a" stroke-width="26"/>
<line x1="23250.21" y1="2250.21" x2="23183.69" y2="2183.69" stroke="#a8a29a" stroke-width="26"/>
<line x1="23350" y1="2208.88" x2="23350" y2="2114.8" stroke="#a8a29a" stroke-width="26"/>
<line x1="23449.79" y1="2250.21" x2="23516.31" y2="2183.69" stroke="#a8a29a" stroke-width="26"/>
<circle cx="23350" cy="2350" r="20.16" fill="#6c6864" stroke="#6c6864" stroke-width="36"/>
<path d="M 45010,20000 L 46790,20000 A 10 10 0 0 1 46800,20010 L 46800,20490 A 10 10 0 0 1 46790,20500 L 45010,20500 A 10 10 0 0 1 45000,20490 L 45000,20010 A 10 10 0 0 1 45010,20000 Z" fill="#f4f2ee" stroke="#6c6864" stroke-width="36"/>
<line x1="45000" y1="20125" x2="46800" y2="20125" stroke="#a8a29a" stroke-width="26"/>
<line x1="45000" y1="20250" x2="46800" y2="20250" stroke="#a8a29a" stroke-width="26"/>
<line x1="45000" y1="20375" x2="46800" y2="20375" stroke="#a8a29a" stroke-width="26"/>
<path d="M 49592.13,2249.71 A 100.51 100.51 0 0 1 49686,2350 A 100.51 100.51 0 0 1 49592.13,2450.29 A 120.7 120.7 0 0 1 49450.29,2592.13 A 100.51 100.51 0 0 1 49350,2686 A 100.51 100.51 0 0 1 49249.71,2592.13 A 120.7 120.7 0 0 1 49107.87,2450.29 A 100.51 100.51 0 0 1 49014,2350 A 100.51 100.51 0 0 1 49107.87,2249.71 A 120.7 120.7 0 0 1 49249.71,2107.87 A 100.51 100.51 0 0 1 49350,2014 A 100.51 100.51 0 0 1 49450.29,2107.87 A 120.7 120.7 0 0 1 49592.13,2249.71 Z" fill="#eef3e7" stroke="#6c6864" stroke-width="36"/>
<circle cx="49350" cy="2350" r="141.12" fill="none" stroke="#a8a29a" stroke-width="26"/>
<line x1="49491.12" y1="2350" x2="49585.2" y2="2350" stroke="#a8a29a" stroke-width="26"/>
<line x1="49449.79" y1="2449.79" x2="49516.31" y2="2516.31" stroke="#a8a29a" stroke-width="26"/>
<line x1="49350" y1="2491.12" x2="49350" y2="2585.2" stroke="#a8a29a" stroke-width="26"/>
<line x1="49250.21" y1="2449.79" x2="49183.69" y2="2516.31" stroke="#a8a29a" stroke-width="26"/>
<line x1="49208.88" y1="2350" x2="49114.8" y2="2350" stroke="#a8a29a" stroke-width="26"/>
<line x1="49250.21" y1="2250.21" x2="49183.69" y2="2183.69" stroke="#a8a29a" stroke-width="26"/>
<line x1="49350" y1="2208.88" x2="49350" y2="2114.8" stroke="#a8a29a" stroke-width="26"/>
<line x1="49449.79" y1="2250.21" x2="49516.31" y2="2183.69" stroke="#a8a29a" stroke-width="26"/>
<circle cx="49350" cy="2350" r="20.16" fill="#6c6864" stroke="#6c6864" stroke-width="36"/>
<path d="M 71010,20000 L 72790,20000 A 10 10 0 0 1 72800,20010 L 72800,20490 A 10 10 0 0 1 72790,20500 L 71010,20500 A 10 10 0 0 1 71000,20490 L 71000,20010 A 10 10 0 0 1 71010,20000 Z" fill="#f4f2ee" stroke="#6c6864" stroke-width="36"/>
<line x1="71000" y1="20125" x2="72800" y2="20125" stroke="#a8a29a" stroke-width="26"/>
<line x1="71000" y1="20250" x2="72800" y2="20250" stroke="#a8a29a" stroke-width="26"/>
<line x1="71000" y1="20375" x2="72800" y2="20375" stroke="#a8a29a" stroke-width="26"/>
<path d="M 75592.13,2249.71 A 100.51 100.51 0 0 1 75686,2350 A 100.51 100.51 0 0 1 75592.13,2450.29 A 120.7 120.7 0 0 1 75450.29,2592.13 A 100.51 100.51 0 0 1 75350,2686 A 100.51 100.51 0 0 1 75249.71,2592.13 A 120.7 120.7 0 0 1 75107.87,2450.29 A 100.51 100.51 0 0 1 75014,2350 A 100.51 100.51 0 0 1 75107.87,2249.71 A 120.7 120.7 0 0 1 75249.71,2107.87 A 100.51 100.51 0 0 1 75350,2014 A 100.51 100.51 0 0 1 75450.29,2107.87 A 120.7 120.7 0 0 1 75592.13,2249.71 Z" fill="#eef3e7" stroke="#6c6864" stroke-width="36"/>
<circle cx="75350" cy="2350" r="141.12" fill="none" stroke="#a8a29a" stroke-width="26"/>
<line x1="75491.12" y1="2350" x2="75585.2" y2="2350" stroke="#a8a29a" stroke-width="26"/>
<line x1="75449.79" y1="2449.79" x2="75516.31" y2="2516.31" stroke="#a8a29a" stroke-width="26"/>
<line x1="75350" y1="2491.12" x2="75350" y2="2585.2" stroke="#a8a29a" stroke-width="26"/>
<line x1="75250.21" y1="2449.79" x2="75183.69" y2="2516.31" stroke="#a8a29a" stroke-width="26"/>
<line x1="75208.88" y1="2350" x2="75114.8" y2="2350" stroke="#a8a29a" stroke-width="26"/>
<line x1="75250.21" y1="2250.21" x2="75183.69" y2="2183.69" stroke="#a8a29a" stroke-width="26"/>
<line x1="75350" y1="2208.88" x2="75350" y2="2114.8" stroke="#a8a29a" stroke-width="26"/>
<line x1="75449.79" y1="2250.21" x2="75516.31" y2="2183.69" stroke="#a8a29a" stroke-width="26"/>
<circle cx="75350" cy="2350" r="20.16" fill="#6c6864" stroke="#6c6864" stroke-width="36"/>
<path d="M 24010,50000 L 25790,50000 A 10 10 0 0 1 25800,50010 L 25800,50490 A 10 10 0 0 1 25790,50500 L 24010,50500 A 10 10 0 0 1 24000,50490 L 24000,50010 A 10 10 0 0 1 24010,50000 Z" fill="#f4f2ee" stroke="#6c6864" stroke-width="36"/>
<line x1="24000" y1="50125" x2="25800" y2="50125" stroke="#a8a29a" stroke-width="26"/>
<line x1="24000" y1="50250" x2="25800" y2="50250" stroke="#a8a29a" stroke-width="26"/>
<line x1="24000" y1="50375" x2="25800" y2="50375" stroke="#a8a29a" stroke-width="26"/>
<path d="M 26592.13,35249.71 A 100.51 100.51 0 0 1 26686,35350 A 100.51 100.51 0 0 1 26592.13,35450.29 A 120.7 120.7 0 0 1 26450.29,35592.13 A 100.51 100.51 0 0 1 26350,35686 A 100.51 100.51 0 0 1 26249.71,35592.13 A 120.7 120.7 0 0 1 26107.87,35450.29 A 100.51 100.51 0 0 1 26014,35350 A 100.51 100.51 0 0 1 26107.87,35249.71 A 120.7 120.7 0 0 1 26249.71,35107.87 A 100.51 100.51 0 0 1 26350,35014 A 100.51 100.51 0 0 1 26450.29,35107.87 A 120.7 120.7 0 0 1 26592.13,35249.71 Z" fill="#eef3e7" stroke="#6c6864" stroke-width="36"/>
<circle cx="26350" cy="35350" r="141.12" fill="none" stroke="#a8a29a" stroke-width="26"/>
<line x1="26491.12" y1="35350" x2="26585.2" y2="35350" stroke="#a8a29a" stroke-width="26"/>
<line x1="26449.79" y1="35449.79" x2="26516.31" y2="35516.31" stroke="#a8a29a" stroke-width="26"/>
<line x1="26350" y1="35491.12" x2="26350" y2="35585.2" stroke="#a8a29a" stroke-width="26"/>
<line x1="26250.21" y1="35449.79" x2="26183.69" y2="35516.31" stroke="#a8a29a" stroke-width="26"/>
<line x1="26208.88" y1="35350" x2="26114.8" y2="35350" stroke="#a8a29a" stroke-width="26"/>
<line x1="26250.21" y1="35250.21" x2="26183.69" y2="35183.69" stroke="#a8a29a" stroke-width="26"/>
<line x1="26350" y1="35208.88" x2="26350" y2="35114.8" stroke="#a8a29a" stroke-width="26"/>
<line x1="26449.79" y1="35250.21" x2="26516.31" y2="35183.69" stroke="#a8a29a" stroke-width="26"/>
<circle cx="26350" cy="35350" r="20.16" fill="#6c6864" stroke="#6c6864" stroke-width="36"/>
<path d="M 60010,55000 L 61790,55000 A 10 10 0 0 1 61800,55010 L 61800,55490 A 10 10 0 0 1 61790,55500 L 60010,55500 A 10 10 0 0 1 60000,55490 L 60000,55010 A 10 10 0 0 1 60010,55000 Z" fill="#f4f2ee" stroke="#6c6864" stroke-width="36"/>
<line x1="60000" y1="55125" x2="61800" y2="55125" stroke="#a8a29a" stroke-width="26"/>
<line x1="60000" y1="55250" x2="61800" y2="55250" stroke="#a8a29a" stroke-width="26"/>
<line x1="60000" y1="55375" x2="61800" y2="55375" stroke="#a8a29a" stroke-width="26"/>
<path d="M 49592.13,35249.71 A 100.51 100.51 0 0 1 49686,35350 A 100.51 100.51 0 0 1 49592.13,35450.29 A 120.7 120.7 0 0 1 49450.29,35592.13 A 100.51 100.51 0 0 1 49350,35686 A 100.51 100.51 0 0 1 49249.71,35592.13 A 120.7 120.7 0 0 1 49107.87,35450.29 A 100.51 100.51 0 0 1 49014,35350 A 100.51 100.51 0 0 1 49107.87,35249.71 A 120.7 120.7 0 0 1 49249.71,35107.87 A 100.51 100.51 0 0 1 49350,35014 A 100.51 100.51 0 0 1 49450.29,35107.87 A 120.7 120.7 0 0 1 49592.13,35249.71 Z" fill="#eef3e7" stroke="#6c6864" stroke-width="36"/>
<circle cx="49350" cy="35350" r="141.12" fill="none" stroke="#a8a29a" stroke-width="26"/>
<line x1="49491.12" y1="35350" x2="49585.2" y2="35350" stroke="#a8a29a" stroke-width="26"/>
<line x1="49449.79" y1="35449.79" x2="49516.31" y2="35516.31" stroke="#a8a29a" stroke-width="26"/>
<line x1="49350" y1="35491.12" x2="49350" y2="35585.2" stroke="#a8a29a" stroke-width="26"/>
<line x1="49250.21" y1="35449.79" x2="49183.69" y2="35516.31" stroke="#a8a29a" stroke-width="26"/>
<line x1="49208.88" y1="35350" x2="49114.8" y2="35350" stroke="#a8a29a" stroke-width="26"/>
<line x1="49250.21" y1="35250.21" x2="49183.69" y2="35183.69" stroke="#a8a29a" stroke-width="26"/>
<line x1="49350" y1="35208.88" x2="49350" y2="35114.8" stroke="#a8a29a" stroke-width="26"/>
<line x1="49449.79" y1="35250.21" x2="49516.31" y2="35183.69" stroke="#a8a29a" stroke-width="26"/>
<circle cx="49350" cy="35350" r="20.16" fill="#6c6864" stroke="#6c6864" stroke-width="36"/>
</g>
<g id="A-WALL" inkscape:groupmode="layer" inkscape:label="A-WALL">
<path d="M -150,-150 L 11000,-150 L 11000,150 L 150,150 L 150,11500 L -150,11500 Z M -150,14500 L 150,14500 L 150,25900 L 11500,25900 L 11500,26100 L 150,26100 L 150,31900 L 13500,31900 L 13500,32100 L 150,32100 L 150,44500 L -150,44500 Z M -150,47500 L 150,47500 L 150,59850 L 13000,59850 L 13000,60150 L -150,60150 Z M 100150,-150 L 100150,18500 L 99850,18500 L 99850,14100 L 89600,14100 L 89600,13900 L 99850,13900 L 99850,150 L 89600,150 L 89600,-150 Z M 100150,21500 L 100150,43000 L 99850,43000 L 99850,32100 L 95000,32100 L 95000,31900 L 99850,31900 L 99850,26100 L 89600,26100 L 89600,25900 L 99850,25900 L 99850,21500 Z M 100150,47000 L 100150,60150 L 61000,60150 L 61000,59850 L 69900,59850 L 69900,32100 L 60500,32100 L 60500,31900 L 71500,31900 L 71500,32100 L 70100,32100 L 70100,59850 L 75900,59850 L 75900,56600 L 76100,56600 L 76100,59850 L 85900,59850 L 85900,52100 L 76100,52100 L 76100,55400 L 75900,55400 L 75900,47600 L 76100,47600 L 76100,51900 L 85900,51900 L 85900,42100 L 76100,42100 L 76100,46400 L 75900,46400 L 75900,37600 L 76100,37600 L 76100,41900 L 85900,41900 L 85900,32100 L 76100,32100 L 76100,36400 L 75900,36400 L 75900,32100 L 74500,32100 L 74500,31900 L 91000,31900 L 91000,32100 L 86100,32100 L 86100,59850 L 99850,59850 L 99850,47000 Z M 14500,25900 L 25900,25900 L 25900,150 L 15000,150 L 15000,-150 L 37000,-150 L 37000,150 L 26100,150 L 26100,25900 L 37500,25900 L 37500,26100 L 14500,26100 Z M 16500,31900 L 37000,31900 L 37000,32100 L 30100,32100 L 30100,59850 L 38000,59850 L 38000,60150 L 17000,60150 L 17000,59850 L 29900,59850 L 29900,32100 L 16500,32100 Z M 40000,59850 L 47900,59850 L 47900,32100 L 41000,32100 L 41000,31900 L 57500,31900 L 57500,32100 L 48100,32100 L 48100,59850 L 57000,59850 L 57000,60150 L 40000,60150 Z M 40500,25900 L 51900,25900 L 51900,150 L 41000,150 L 41000,-150 L 63000,-150 L 63000,150 L 52100,150 L 52100,25900 L 63500,25900 L 63500,26100 L 40500,26100 Z M 66500,25900 L 77900,25900 L 77900,150 L 67000,150 L 67000,-150 L 88400,-150 L 88400,150 L 78100,150 L 78100,13900 L 88400,13900 L 88400,14100 L 78100,14100 L 78100,25900 L 88400,25900 L 88400,26100 L 66500,26100 Z" fill="url(#poche)" fill-rule="nonzero"/>
<path d="M -150,-150 L 11000,-150 L 11000,150 L 150,150 L 150,11500 L -150,11500 Z M -150,14500 L 150,14500 L 150,25900 L 11500,25900 L 11500,26100 L 150,26100 L 150,31900 L 13500,31900 L 13500,32100 L 150,32100 L 150,44500 L -150,44500 Z M -150,47500 L 150,47500 L 150,59850 L 13000,59850 L 13000,60150 L -150,60150 Z M 100150,-150 L 100150,18500 L 99850,18500 L 99850,14100 L 89600,14100 L 89600,13900 L 99850,13900 L 99850,150 L 89600,150 L 89600,-150 Z M 100150,21500 L 100150,43000 L 99850,43000 L 99850,32100 L 95000,32100 L 95000,31900 L 99850,31900 L 99850,26100 L 89600,26100 L 89600,25900 L 99850,25900 L 99850,21500 Z M 100150,47000 L 100150,60150 L 61000,60150 L 61000,59850 L 69900,59850 L 69900,32100 L 60500,32100 L 60500,31900 L 71500,31900 L 71500,32100 L 70100,32100 L 70100,59850 L 75900,59850 L 75900,56600 L 76100,56600 L 76100,59850 L 85900,59850 L 85900,52100 L 76100,52100 L 76100,55400 L 75900,55400 L 75900,47600 L 76100,47600 L 76100,51900 L 85900,51900 L 85900,42100 L 76100,42100 L 76100,46400 L 75900,46400 L 75900,37600 L 76100,37600 L 76100,41900 L 85900,41900 L 85900,32100 L 76100,32100 L 76100,36400 L 75900,36400 L 75900,32100 L 74500,32100 L 74500,31900 L 91000,31900 L 91000,32100 L 86100,32100 L 86100,59850 L 99850,59850 L 99850,47000 Z M 14500,25900 L 25900,25900 L 25900,150 L 15000,150 L 15000,-150 L 37000,-150 L 37000,150 L 26100,150 L 26100,25900 L 37500,25900 L 37500,26100 L 14500,26100 Z M 16500,31900 L 37000,31900 L 37000,32100 L 30100,32100 L 30100,59850 L 38000,59850 L 38000,60150 L 17000,60150 L 17000,59850 L 29900,59850 L 29900,32100 L 16500,32100 Z M 40000,59850 L 47900,59850 L 47900,32100 L 41000,32100 L 41000,31900 L 57500,31900 L 57500,32100 L 48100,32100 L 48100,59850 L 57000,59850 L 57000,60150 L 40000,60150 Z M 40500,25900 L 51900,25900 L 51900,150 L 41000,150 L 41000,-150 L 63000,-150 L 63000,150 L 52100,150 L 52100,25900 L 63500,25900 L 63500,26100 L 40500,26100 Z M 66500,25900 L 77900,25900 L 77900,150 L 67000,150 L 67000,-150 L 88400,-150 L 88400,150 L 78100,150 L 78100,13900 L 88400,13900 L 88400,14100 L 78100,14100 L 78100,25900 L 88400,25900 L 88400,26100 L 66500,26100 Z" fill="none" stroke="#1b1b1b" stroke-width="100" stroke-linejoin="miter" stroke-miterlimit="4"/>
</g>
<g id="A-DOOR" inkscape:groupmode="layer" inkscape:label="A-DOOR">
<polygon points="40000,59850 38000,59850 38000,60150 40000,60150" fill="none"/>
<polygon points="40000,60000 40000,62000 39906.4,61997.81 39906.4,60000" fill="#ffffff" stroke="#555555" stroke-width="46.8"/>
<path d="M 40000,62000 A 2000 2000 0 0 1 38000,60000" fill="none" stroke="#555555" stroke-width="26"/>
<polygon points="88400,26100 89600,26100 89600,25900 88400,25900" fill="none"/>
<polygon points="88400,26000 88400,27200 88472,27197.84 88472,26000" fill="#ffffff" stroke="#555555" stroke-width="46.8"/>
<path d="M 88400,27200 A 1200 1200 0 0 0 89600,26000" fill="none" stroke="#555555" stroke-width="26"/>
<polygon points="88400,14100 89600,14100 89600,13900 88400,13900" fill="none"/>
<polygon points="88400,14000 88400,15200 88472,15197.84 88472,14000" fill="#ffffff" stroke="#555555" stroke-width="46.8"/>
<path d="M 88400,15200 A 1200 1200 0 0 0 89600,14000" fill="none" stroke="#555555" stroke-width="26"/>
<polygon points="88400,150 89600,150 89600,-150 88400,-150" fill="none"/>
<polygon points="88400,0 88400,-1200 88472,-1197.84 88472,0" fill="#ffffff" stroke="#555555" stroke-width="46.8"/>
<path d="M 88400,-1200 A 1200 1200 0 0 1 89600,0" fill="none" stroke="#555555" stroke-width="26"/>
<polygon points="75900,36400 75900,37600 76100,37600 76100,36400" fill="none"/>
<polygon points="76000,36400 74800,36400 74802.16,36472 76000,36472" fill="#ffffff" stroke="#555555" stroke-width="46.8"/>
<path d="M 74800,36400 A 1200 1200 0 0 0 76000,37600" fill="none" stroke="#555555" stroke-width="26"/>
<polygon points="75900,46400 75900,47600 76100,47600 76100,46400" fill="none"/>
<polygon points="76000,46400 74800,46400 74802.16,46472 76000,46472" fill="#ffffff" stroke="#555555" stroke-width="46.8"/>
<path d="M 74800,46400 A 1200 1200 0 0 0 76000,47600" fill="none" stroke="#555555" stroke-width="26"/>
<polygon points="75900,55400 75900,56600 76100,56600 76100,55400" fill="none"/>
<polygon points="76000,55400 74800,55400 74802.16,55472 76000,55472" fill="#ffffff" stroke="#555555" stroke-width="46.8"/>
<path d="M 74800,55400 A 1200 1200 0 0 0 76000,56600" fill="none" stroke="#555555" stroke-width="26"/>
<polygon points="37000,32100 41000,32100 41000,31900 37000,31900" fill="none"/>
<polygon points="11500,26100 14500,26100 14500,25900 11500,25900" fill="none"/>
<polygon points="37500,26100 40500,26100 40500,25900 37500,25900" fill="none"/>
<polygon points="63500,26100 66500,26100 66500,25900 63500,25900" fill="none"/>
<polygon points="13500,32100 16500,32100 16500,31900 13500,31900" fill="none"/>
<polygon points="57500,32100 60500,32100 60500,31900 57500,31900" fill="none"/>
<polygon points="71500,32100 74500,32100 74500,31900 71500,31900" fill="none"/>
<polygon points="91000,32100 95000,32100 95000,31900 91000,31900" fill="none"/>
</g>
<g id="A-GLAZ" inkscape:groupmode="layer" inkscape:label="A-GLAZ">
<polygon points="11000,250 15000,250 15000,-250 11000,-250" fill="#ffffff"/>
<line x1="11000" y1="150" x2="15000" y2="150" stroke="#1b1b1b" stroke-width="36"/>
<line x1="11000" y1="-150" x2="15000" y2="-150" stroke="#1b1b1b" stroke-width="36"/>
<line x1="11000" y1="37.5" x2="15000" y2="37.5" stroke="#3a6ea5" stroke-width="36"/>
<line x1="11000" y1="-37.5" x2="15000" y2="-37.5" stroke="#3a6ea5" stroke-width="36"/>
<polygon points="10940,-150 10940,-210 15060,-210 15060,-150" fill="none" stroke="#1b1b1b" stroke-width="36"/>
<polygon points="37000,250 41000,250 41000,-250 37000,-250" fill="#ffffff"/>
<line x1="37000" y1="150" x2="41000" y2="150" stroke="#1b1b1b" stroke-width="36"/>
<line x1="37000" y1="-150" x2="41000" y2="-150" stroke="#1b1b1b" stroke-width="36"/>
<line x1="37000" y1="37.5" x2="41000" y2="37.5" stroke="#3a6ea5" stroke-width="36"/>
<line x1="37000" y1="-37.5" x2="41000" y2="-37.5" stroke="#3a6ea5" stroke-width="36"/>
<polygon points="36940,-150 36940,-210 41060,-210 41060,-150" fill="none" stroke="#1b1b1b" stroke-width="36"/>
<polygon points="63000,250 67000,250 67000,-250 63000,-250" fill="#ffffff"/>
<line x1="63000" y1="150" x2="67000" y2="150" stroke="#1b1b1b" stroke-width="36"/>
<line x1="63000" y1="-150" x2="67000" y2="-150" stroke="#1b1b1b" stroke-width="36"/>
<line x1="63000" y1="37.5" x2="67000" y2="37.5" stroke="#3a6ea5" stroke-width="36"/>
<line x1="63000" y1="-37.5" x2="67000" y2="-37.5" stroke="#3a6ea5" stroke-width="36"/>
<polygon points="62940,-150 62940,-210 67060,-210 67060,-150" fill="none" stroke="#1b1b1b" stroke-width="36"/>
<polygon points="250,14500 250,11500 -250,11500 -250,14500" fill="#ffffff"/>
<line x1="150" y1="14500" x2="150" y2="11500" stroke="#1b1b1b" stroke-width="36"/>
<line x1="-150" y1="14500" x2="-150" y2="11500" stroke="#1b1b1b" stroke-width="36"/>
<line x1="37.5" y1="14500" x2="37.5" y2="11500" stroke="#3a6ea5" stroke-width="36"/>
<line x1="-37.5" y1="14500" x2="-37.5" y2="11500" stroke="#3a6ea5" stroke-width="36"/>
<polygon points="-150,14560 -210,14560 -210,11440 -150,11440" fill="none" stroke="#1b1b1b" stroke-width="36"/>
<polygon points="250,47500 250,44500 -250,44500 -250,47500" fill="#ffffff"/>
<line x1="150" y1="47500" x2="150" y2="44500" stroke="#1b1b1b" stroke-width="36"/>
<line x1="-150" y1="47500" x2="-150" y2="44500" stroke="#1b1b1b" stroke-width="36"/>
<line x1="37.5" y1="47500" x2="37.5" y2="44500" stroke="#3a6ea5" stroke-width="36"/>
<line x1="-37.5" y1="47500" x2="-37.5" y2="44500" stroke="#3a6ea5" stroke-width="36"/>
<polygon points="-150,47560 -210,47560 -210,44440 -150,44440" fill="none" stroke="#1b1b1b" stroke-width="36"/>
<polygon points="99750,18500 99750,21500 100250,21500 100250,18500" fill="#ffffff"/>
<line x1="99850" y1="18500" x2="99850" y2="21500" stroke="#1b1b1b" stroke-width="36"/>
<line x1="100150" y1="18500" x2="100150" y2="21500" stroke="#1b1b1b" stroke-width="36"/>
<line x1="99962.5" y1="18500" x2="99962.5" y2="21500" stroke="#3a6ea5" stroke-width="36"/>
<line x1="100037.5" y1="18500" x2="100037.5" y2="21500" stroke="#3a6ea5" stroke-width="36"/>
<polygon points="100150,18440 100210,18440 100210,21560 100150,21560" fill="none" stroke="#1b1b1b" stroke-width="36"/>
<polygon points="99750,43000 99750,47000 100250,47000 100250,43000" fill="#ffffff"/>
<line x1="99850" y1="43000" x2="99850" y2="47000" stroke="#1b1b1b" stroke-width="36"/>
<line x1="100150" y1="43000" x2="100150" y2="47000" stroke="#1b1b1b" stroke-width="36"/>
<line x1="99962.5" y1="43000" x2="99962.5" y2="47000" stroke="#3a6ea5" stroke-width="36"/>
<line x1="100037.5" y1="43000" x2="100037.5" y2="47000" stroke="#3a6ea5" stroke-width="36"/>
<polygon points="100150,42940 100210,42940 100210,47060 100150,47060" fill="none" stroke="#1b1b1b" stroke-width="36"/>
<polygon points="17000,59750 13000,59750 13000,60250 17000,60250" fill="#ffffff"/>
<line x1="17000" y1="59850" x2="13000" y2="59850" stroke="#1b1b1b" stroke-width="36"/>
<line x1="17000" y1="60150" x2="13000" y2="60150" stroke="#1b1b1b" stroke-width="36"/>
<line x1="17000" y1="59962.5" x2="13000" y2="59962.5" stroke="#3a6ea5" stroke-width="36"/>
<line x1="17000" y1="60037.5" x2="13000" y2="60037.5" stroke="#3a6ea5" stroke-width="36"/>
<polygon points="17060,60150 17060,60210 12940,60210 12940,60150" fill="none" stroke="#1b1b1b" stroke-width="36"/>
<polygon points="61000,59750 57000,59750 57000,60250 61000,60250" fill="#ffffff"/>
<line x1="61000" y1="59850" x2="57000" y2="59850" stroke="#1b1b1b" stroke-width="36"/>
<line x1="61000" y1="60150" x2="57000" y2="60150" stroke="#1b1b1b" stroke-width="36"/>
<line x1="61000" y1="59962.5" x2="57000" y2="59962.5" stroke="#3a6ea5" stroke-width="36"/>
<line x1="61000" y1="60037.5" x2="57000" y2="60037.5" stroke="#3a6ea5" stroke-width="36"/>
<polygon points="61060,60150 61060,60210 56940,60210 56940,60150" fill="none" stroke="#1b1b1b" stroke-width="36"/>
</g>
<g id="A-ANNO-TEXT" inkscape:groupmode="layer" inkscape:label="A-ANNO-TEXT">
<text x="13000" y="12860" font-size="700" fill="#222222" text-anchor="middle" dominant-baseline="central" font-weight="600">Gallery 1</text>
<text x="13000" y="13630" font-size="500" fill="#7a7a7a" text-anchor="middle" dominant-baseline="central">676.0 m²</text>
<text x="39000" y="12860" font-size="700" fill="#222222" text-anchor="middle" dominant-baseline="central" font-weight="600">Gallery 2</text>
<text x="39000" y="13630" font-size="500" fill="#7a7a7a" text-anchor="middle" dominant-baseline="central">676.0 m²</text>
<text x="65000" y="12860" font-size="700" fill="#222222" text-anchor="middle" dominant-baseline="central" font-weight="600">Gallery 3</text>
<text x="65000" y="13630" font-size="500" fill="#7a7a7a" text-anchor="middle" dominant-baseline="central">676.0 m²</text>
<text x="89000" y="6860" font-size="700" fill="#222222" text-anchor="middle" dominant-baseline="central" font-weight="600">Store</text>
<text x="89000" y="7630" font-size="500" fill="#7a7a7a" text-anchor="middle" dominant-baseline="central">308.0 m²</text>
<text x="89000" y="19860" font-size="700" fill="#222222" text-anchor="middle" dominant-baseline="central" font-weight="600">Offices</text>
<text x="89000" y="20630" font-size="500" fill="#7a7a7a" text-anchor="middle" dominant-baseline="central">264.0 m²</text>
<text x="50000" y="28860" font-size="700" fill="#222222" text-anchor="middle" dominant-baseline="central" font-weight="600">Concourse</text>
<text x="50000" y="29630" font-size="500" fill="#7a7a7a" text-anchor="middle" dominant-baseline="central">600.0 m²</text>
<text x="15000" y="45860" font-size="700" fill="#222222" text-anchor="middle" dominant-baseline="central" font-weight="600">Gallery 4</text>
<text x="15000" y="46630" font-size="500" fill="#7a7a7a" text-anchor="middle" dominant-baseline="central">840.0 m²</text>
<text x="39000" y="45860" font-size="700" fill="#222222" text-anchor="middle" dominant-baseline="central" font-weight="600">Entrance Hall</text>
<text x="39000" y="46630" font-size="500" fill="#7a7a7a" text-anchor="middle" dominant-baseline="central">504.0 m²</text>
<text x="59000" y="45860" font-size="700" fill="#222222" text-anchor="middle" dominant-baseline="central" font-weight="600">Gallery 5</text>
<text x="59000" y="46630" font-size="500" fill="#7a7a7a" text-anchor="middle" dominant-baseline="central">616.0 m²</text>
<text x="73000" y="45860" font-size="700" fill="#222222" text-anchor="middle" dominant-baseline="central" font-weight="600">Lobby</text>
<text x="73000" y="46630" font-size="500" fill="#7a7a7a" text-anchor="middle" dominant-baseline="central">168.0 m²</text>
<text x="81000" y="36860" font-size="700" fill="#222222" text-anchor="middle" dominant-baseline="central" font-weight="600">WC Women</text>
<text x="81000" y="37630" font-size="500" fill="#7a7a7a" text-anchor="middle" dominant-baseline="central">100.0 m²</text>
<text x="81000" y="46860" font-size="700" fill="#222222" text-anchor="middle" dominant-baseline="central" font-weight="600">WC Men</text>
<text x="81000" y="47630" font-size="500" fill="#7a7a7a" text-anchor="middle" dominant-baseline="central">100.0 m²</text>
<text x="81000" y="55860" font-size="700" fill="#222222" text-anchor="middle" dominant-baseline="central" font-weight="600">Plant</text>
<text x="81000" y="56630" font-size="500" fill="#7a7a7a" text-anchor="middle" dominant-baseline="central">80.0 m²</text>
<text x="97200" y="45860" font-size="700" fill="#222222" text-anchor="middle" dominant-baseline="central" font-weight="600">Cafe</text>
<text x="97200" y="46630" font-size="500" fill="#7a7a7a" text-anchor="middle" dominant-baseline="central">392.0 m²</text>
</g>
<g id="A-ANNO-DIMS" inkscape:groupmode="layer" inkscape:label="A-ANNO-DIMS">
<line x1="-150" y1="60150" x2="-150" y2="60750" stroke="#0E5484" stroke-width="25.2"/>
<line x1="13000" y1="60150" x2="13000" y2="60750" stroke="#0E5484" stroke-width="25.2"/>
<line x1="-150" y1="60750" x2="13000" y2="60750" stroke="#0E5484" stroke-width="36"/>
<line x1="19.71" y1="60919.71" x2="-319.71" y2="60580.29" stroke="#0E5484" stroke-width="36"/>
<line x1="13169.71" y1="60919.71" x2="12830.29" y2="60580.29" stroke="#0E5484" stroke-width="36"/>
<text x="6425" y="61100" font-size="500" fill="#0E5484" text-anchor="middle" dominant-baseline="central" transform="rotate(0 6425 61100)">13150</text>
<line x1="13000" y1="60150" x2="13000" y2="60750" stroke="#0E5484" stroke-width="25.2"/>
<line x1="17000" y1="60150" x2="17000" y2="60750" stroke="#0E5484" stroke-width="25.2"/>
<line x1="13000" y1="60750" x2="17000" y2="60750" stroke="#0E5484" stroke-width="36"/>
<line x1="13169.71" y1="60919.71" x2="12830.29" y2="60580.29" stroke="#0E5484" stroke-width="36"/>
<line x1="17169.71" y1="60919.71" x2="16830.29" y2="60580.29" stroke="#0E5484" stroke-width="36"/>
<text x="15000" y="61100" font-size="500" fill="#0E5484" text-anchor="middle" dominant-baseline="central" transform="rotate(0 15000 61100)">4000</text>
<line x1="17000" y1="60150" x2="17000" y2="60750" stroke="#0E5484" stroke-width="25.2"/>
<line x1="38000" y1="60150" x2="38000" y2="60750" stroke="#0E5484" stroke-width="25.2"/>
<line x1="17000" y1="60750" x2="38000" y2="60750" stroke="#0E5484" stroke-width="36"/>
<line x1="17169.71" y1="60919.71" x2="16830.29" y2="60580.29" stroke="#0E5484" stroke-width="36"/>
<line x1="38169.71" y1="60919.71" x2="37830.29" y2="60580.29" stroke="#0E5484" stroke-width="36"/>
<text x="27500" y="61100" font-size="500" fill="#0E5484" text-anchor="middle" dominant-baseline="central" transform="rotate(0 27500 61100)">21000</text>
<line x1="38000" y1="60150" x2="38000" y2="60750" stroke="#0E5484" stroke-width="25.2"/>
<line x1="40000" y1="60150" x2="40000" y2="60750" stroke="#0E5484" stroke-width="25.2"/>
<line x1="38000" y1="60750" x2="40000" y2="60750" stroke="#0E5484" stroke-width="36"/>
<line x1="38169.71" y1="60919.71" x2="37830.29" y2="60580.29" stroke="#0E5484" stroke-width="36"/>
<line x1="40169.71" y1="60919.71" x2="39830.29" y2="60580.29" stroke="#0E5484" stroke-width="36"/>
<text x="39000" y="61100" font-size="500" fill="#0E5484" text-anchor="middle" dominant-baseline="central" transform="rotate(0 39000 61100)">2000</text>
<line x1="40000" y1="60150" x2="40000" y2="60750" stroke="#0E5484" stroke-width="25.2"/>
<line x1="57000" y1="60150" x2="57000" y2="60750" stroke="#0E5484" stroke-width="25.2"/>
<line x1="40000" y1="60750" x2="57000" y2="60750" stroke="#0E5484" stroke-width="36"/>
<line x1="40169.71" y1="60919.71" x2="39830.29" y2="60580.29" stroke="#0E5484" stroke-width="36"/>
<line x1="57169.71" y1="60919.71" x2="56830.29" y2="60580.29" stroke="#0E5484" stroke-width="36"/>
<text x="48500" y="61100" font-size="500" fill="#0E5484" text-anchor="middle" dominant-baseline="central" transform="rotate(0 48500 61100)">17000</text>
<line x1="57000" y1="60150" x2="57000" y2="60750" stroke="#0E5484" stroke-width="25.2"/>
<line x1="61000" y1="60150" x2="61000" y2="60750" stroke="#0E5484" stroke-width="25.2"/>
<line x1="57000" y1="60750" x2="61000" y2="60750" stroke="#0E5484" stroke-width="36"/>
<line x1="57169.71" y1="60919.71" x2="56830.29" y2="60580.29" stroke="#0E5484" stroke-width="36"/>
<line x1="61169.71" y1="60919.71" x2="60830.29" y2="60580.29" stroke="#0E5484" stroke-width="36"/>
<text x="59000" y="61100" font-size="500" fill="#0E5484" text-anchor="middle" dominant-baseline="central" transform="rotate(0 59000 61100)">4000</text>
<line x1="61000" y1="60150" x2="61000" y2="60750" stroke="#0E5484" stroke-width="25.2"/>
<line x1="100150" y1="60150" x2="100150" y2="60750" stroke="#0E5484" stroke-width="25.2"/>
<line x1="61000" y1="60750" x2="100150" y2="60750" stroke="#0E5484" stroke-width="36"/>
<line x1="61169.71" y1="60919.71" x2="60830.29" y2="60580.29" stroke="#0E5484" stroke-width="36"/>
<line x1="100319.71" y1="60919.71" x2="99980.29" y2="60580.29" stroke="#0E5484" stroke-width="36"/>
<text x="80575" y="61100" font-size="500" fill="#0E5484" text-anchor="middle" dominant-baseline="central" transform="rotate(0 80575 61100)">39150</text>
<line x1="0" y1="60150" x2="0" y2="61850" stroke="#0E5484" stroke-width="25.2"/>
<line x1="26000" y1="60150" x2="26000" y2="61850" stroke="#0E5484" stroke-width="25.2"/>
<line x1="0" y1="61850" x2="26000" y2="61850" stroke="#0E5484" stroke-width="36"/>
<line x1="169.71" y1="62019.71" x2="-169.71" y2="61680.29" stroke="#0E5484" stroke-width="36"/>
<line x1="26169.71" y1="62019.71" x2="25830.29" y2="61680.29" stroke="#0E5484" stroke-width="36"/>
<text x="13000" y="62200" font-size="500" fill="#0E5484" text-anchor="middle" dominant-baseline="central" transform="rotate(0 13000 62200)">26000</text>
<line x1="26000" y1="60150" x2="26000" y2="61850" stroke="#0E5484" stroke-width="25.2"/>
<line x1="30000" y1="60150" x2="30000" y2="61850" stroke="#0E5484" stroke-width="25.2"/>
<line x1="26000" y1="61850" x2="30000" y2="61850" stroke="#0E5484" stroke-width="36"/>
<line x1="26169.71" y1="62019.71" x2="25830.29" y2="61680.29" stroke="#0E5484" stroke-width="36"/>
<line x1="30169.71" y1="62019.71" x2="29830.29" y2="61680.29" stroke="#0E5484" stroke-width="36"/>
<text x="28000" y="62200" font-size="500" fill="#0E5484" text-anchor="middle" dominant-baseline="central" transform="rotate(0 28000 62200)">4000</text>
<line x1="30000" y1="60150" x2="30000" y2="61850" stroke="#0E5484" stroke-width="25.2"/>
<line x1="48000" y1="60150" x2="48000" y2="61850" stroke="#0E5484" stroke-width="25.2"/>
<line x1="30000" y1="61850" x2="48000" y2="61850" stroke="#0E5484" stroke-width="36"/>
<line x1="30169.71" y1="62019.71" x2="29830.29" y2="61680.29" stroke="#0E5484" stroke-width="36"/>
<line x1="48169.71" y1="62019.71" x2="47830.29" y2="61680.29" stroke="#0E5484" stroke-width="36"/>
<text x="39000" y="62200" font-size="500" fill="#0E5484" text-anchor="middle" dominant-baseline="central" transform="rotate(0 39000 62200)">18000</text>
<line x1="48000" y1="60150" x2="48000" y2="61850" stroke="#0E5484" stroke-width="25.2"/>
<line x1="52000" y1="60150" x2="52000" y2="61850" stroke="#0E5484" stroke-width="25.2"/>
<line x1="48000" y1="61850" x2="52000" y2="61850" stroke="#0E5484" stroke-width="36"/>
<line x1="48169.71" y1="62019.71" x2="47830.29" y2="61680.29" stroke="#0E5484" stroke-width="36"/>
<line x1="52169.71" y1="62019.71" x2="51830.29" y2="61680.29" stroke="#0E5484" stroke-width="36"/>
<text x="50000" y="62200" font-size="500" fill="#0E5484" text-anchor="middle" dominant-baseline="central" transform="rotate(0 50000 62200)">4000</text>
<line x1="52000" y1="60150" x2="52000" y2="61850" stroke="#0E5484" stroke-width="25.2"/>
<line x1="70000" y1="60150" x2="70000" y2="61850" stroke="#0E5484" stroke-width="25.2"/>
<line x1="52000" y1="61850" x2="70000" y2="61850" stroke="#0E5484" stroke-width="36"/>
<line x1="52169.71" y1="62019.71" x2="51830.29" y2="61680.29" stroke="#0E5484" stroke-width="36"/>
<line x1="70169.71" y1="62019.71" x2="69830.29" y2="61680.29" stroke="#0E5484" stroke-width="36"/>
<text x="61000" y="62200" font-size="500" fill="#0E5484" text-anchor="middle" dominant-baseline="central" transform="rotate(0 61000 62200)">18000</text>
<line x1="70000" y1="60150" x2="70000" y2="61850" stroke="#0E5484" stroke-width="25.2"/>
<line x1="76000" y1="60150" x2="76000" y2="61850" stroke="#0E5484" stroke-width="25.2"/>
<line x1="70000" y1="61850" x2="76000" y2="61850" stroke="#0E5484" stroke-width="36"/>
<line x1="70169.71" y1="62019.71" x2="69830.29" y2="61680.29" stroke="#0E5484" stroke-width="36"/>
<line x1="76169.71" y1="62019.71" x2="75830.29" y2="61680.29" stroke="#0E5484" stroke-width="36"/>
<text x="73000" y="62200" font-size="500" fill="#0E5484" text-anchor="middle" dominant-baseline="central" transform="rotate(0 73000 62200)">6000</text>
<line x1="76000" y1="60150" x2="76000" y2="61850" stroke="#0E5484" stroke-width="25.2"/>
<line x1="78000" y1="60150" x2="78000" y2="61850" stroke="#0E5484" stroke-width="25.2"/>
<line x1="76000" y1="61850" x2="78000" y2="61850" stroke="#0E5484" stroke-width="36"/>
<line x1="76169.71" y1="62019.71" x2="75830.29" y2="61680.29" stroke="#0E5484" stroke-width="36"/>
<line x1="78169.71" y1="62019.71" x2="77830.29" y2="61680.29" stroke="#0E5484" stroke-width="36"/>
<text x="77000" y="62200" font-size="500" fill="#0E5484" text-anchor="middle" dominant-baseline="central" transform="rotate(0 77000 62200)">2000</text>
<line x1="78000" y1="60150" x2="78000" y2="61850" stroke="#0E5484" stroke-width="25.2"/>
<line x1="86000" y1="60150" x2="86000" y2="61850" stroke="#0E5484" stroke-width="25.2"/>
<line x1="78000" y1="61850" x2="86000" y2="61850" stroke="#0E5484" stroke-width="36"/>
<line x1="78169.71" y1="62019.71" x2="77830.29" y2="61680.29" stroke="#0E5484" stroke-width="36"/>
<line x1="86169.71" y1="62019.71" x2="85830.29" y2="61680.29" stroke="#0E5484" stroke-width="36"/>
<text x="82000" y="62200" font-size="500" fill="#0E5484" text-anchor="middle" dominant-baseline="central" transform="rotate(0 82000 62200)">8000</text>
<line x1="86000" y1="60150" x2="86000" y2="61850" stroke="#0E5484" stroke-width="25.2"/>
<line x1="100000" y1="60150" x2="100000" y2="61850" stroke="#0E5484" stroke-width="25.2"/>
<line x1="86000" y1="61850" x2="100000" y2="61850" stroke="#0E5484" stroke-width="36"/>
<line x1="86169.71" y1="62019.71" x2="85830.29" y2="61680.29" stroke="#0E5484" stroke-width="36"/>
<line x1="100169.71" y1="62019.71" x2="99830.29" y2="61680.29" stroke="#0E5484" stroke-width="36"/>
<text x="93000" y="62200" font-size="500" fill="#0E5484" text-anchor="middle" dominant-baseline="central" transform="rotate(0 93000 62200)">14000</text>
<line x1="-150" y1="60150" x2="-150" y2="62950" stroke="#0E5484" stroke-width="25.2"/>
<line x1="100150" y1="60150" x2="100150" y2="62950" stroke="#0E5484" stroke-width="25.2"/>
<line x1="-150" y1="62950" x2="100150" y2="62950" stroke="#0E5484" stroke-width="36"/>
<line x1="19.71" y1="63119.71" x2="-319.71" y2="62780.29" stroke="#0E5484" stroke-width="36"/>
<line x1="100319.71" y1="63119.71" x2="99980.29" y2="62780.29" stroke="#0E5484" stroke-width="36"/>
<text x="50000" y="63300" font-size="500" fill="#0E5484" text-anchor="middle" dominant-baseline="central" transform="rotate(0 50000 63300)">100300</text>
<line x1="-150" y1="-150" x2="-750" y2="-150" stroke="#0E5484" stroke-width="25.2"/>
<line x1="-150" y1="11500" x2="-750" y2="11500" stroke="#0E5484" stroke-width="25.2"/>
<line x1="-750" y1="-150" x2="-750" y2="11500" stroke="#0E5484" stroke-width="36"/>
<line x1="-919.71" y1="19.71" x2="-580.29" y2="-319.71" stroke="#0E5484" stroke-width="36"/>
<line x1="-919.71" y1="11669.71" x2="-580.29" y2="11330.29" stroke="#0E5484" stroke-width="36"/>
<text x="-1100" y="5675" font-size="500" fill="#0E5484" text-anchor="middle" dominant-baseline="central" transform="rotate(90 -1100 5675)">11650</text>
<line x1="-150" y1="11500" x2="-750" y2="11500" stroke="#0E5484" stroke-width="25.2"/>
<line x1="-150" y1="14500" x2="-750" y2="14500" stroke="#0E5484" stroke-width="25.2"/>
<line x1="-750" y1="11500" x2="-750" y2="14500" stroke="#0E5484" stroke-width="36"/>
<line x1="-919.71" y1="11669.71" x2="-580.29" y2="11330.29" stroke="#0E5484" stroke-width="36"/>
<line x1="-919.71" y1="14669.71" x2="-580.29" y2="14330.29" stroke="#0E5484" stroke-width="36"/>
<text x="-1100" y="13000" font-size="500" fill="#0E5484" text-anchor="middle" dominant-baseline="central" transform="rotate(90 -1100 13000)">3000</text>
<line x1="-150" y1="14500" x2="-750" y2="14500" stroke="#0E5484" stroke-width="25.2"/>
<line x1="-150" y1="44500" x2="-750" y2="44500" stroke="#0E5484" stroke-width="25.2"/>
<line x1="-750" y1="14500" x2="-750" y2="44500" stroke="#0E5484" stroke-width="36"/>
<line x1="-919.71" y1="14669.71" x2="-580.29" y2="14330.29" stroke="#0E5484" stroke-width="36"/>
<line x1="-919.71" y1="44669.71" x2="-580.29" y2="44330.29" stroke="#0E5484" stroke-width="36"/>
<text x="-1100" y="29500" font-size="500" fill="#0E5484" text-anchor="middle" dominant-baseline="central" transform="rotate(90 -1100 29500)">30000</text>
<line x1="-150" y1="44500" x2="-750" y2="44500" stroke="#0E5484" stroke-width="25.2"/>
<line x1="-150" y1="47500" x2="-750" y2="47500" stroke="#0E5484" stroke-width="25.2"/>
<line x1="-750" y1="44500" x2="-750" y2="47500" stroke="#0E5484" stroke-width="36"/>
<line x1="-919.71" y1="44669.71" x2="-580.29" y2="44330.29" stroke="#0E5484" stroke-width="36"/>
<line x1="-919.71" y1="47669.71" x2="-580.29" y2="47330.29" stroke="#0E5484" stroke-width="36"/>
<text x="-1100" y="46000" font-size="500" fill="#0E5484" text-anchor="middle" dominant-baseline="central" transform="rotate(90 -1100 46000)">3000</text>
<line x1="-150" y1="47500" x2="-750" y2="47500" stroke="#0E5484" stroke-width="25.2"/>
<line x1="-150" y1="60150" x2="-750" y2="60150" stroke="#0E5484" stroke-width="25.2"/>
<line x1="-750" y1="47500" x2="-750" y2="60150" stroke="#0E5484" stroke-width="36"/>
<line x1="-919.71" y1="47669.71" x2="-580.29" y2="47330.29" stroke="#0E5484" stroke-width="36"/>
<line x1="-919.71" y1="60319.71" x2="-580.29" y2="59980.29" stroke="#0E5484" stroke-width="36"/>
<text x="-1100" y="53825" font-size="500" fill="#0E5484" text-anchor="middle" dominant-baseline="central" transform="rotate(90 -1100 53825)">12650</text>
<line x1="-150" y1="0" x2="-1850" y2="0" stroke="#0E5484" stroke-width="25.2"/>
<line x1="-150" y1="14000" x2="-1850" y2="14000" stroke="#0E5484" stroke-width="25.2"/>
<line x1="-1850" y1="0" x2="-1850" y2="14000" stroke="#0E5484" stroke-width="36"/>
<line x1="-2019.71" y1="169.71" x2="-1680.29" y2="-169.71" stroke="#0E5484" stroke-width="36"/>
<line x1="-2019.71" y1="14169.71" x2="-1680.29" y2="13830.29" stroke="#0E5484" stroke-width="36"/>
<text x="-2200" y="7000" font-size="500" fill="#0E5484" text-anchor="middle" dominant-baseline="central" transform="rotate(90 -2200 7000)">14000</text>
<line x1="-150" y1="14000" x2="-1850" y2="14000" stroke="#0E5484" stroke-width="25.2"/>
<line x1="-150" y1="26000" x2="-1850" y2="26000" stroke="#0E5484" stroke-width="25.2"/>
<line x1="-1850" y1="14000" x2="-1850" y2="26000" stroke="#0E5484" stroke-width="36"/>
<line x1="-2019.71" y1="14169.71" x2="-1680.29" y2="13830.29" stroke="#0E5484" stroke-width="36"/>
<line x1="-2019.71" y1="26169.71" x2="-1680.29" y2="25830.29" stroke="#0E5484" stroke-width="36"/>
<text x="-2200" y="20000" font-size="500" fill="#0E5484" text-anchor="middle" dominant-baseline="central" transform="rotate(90 -2200 20000)">12000</text>
<line x1="-150" y1="26000" x2="-1850" y2="26000" stroke="#0E5484" stroke-width="25.2"/>
<line x1="-150" y1="32000" x2="-1850" y2="32000" stroke="#0E5484" stroke-width="25.2"/>
<line x1="-1850" y1="26000" x2="-1850" y2="32000" stroke="#0E5484" stroke-width="36"/>
<line x1="-2019.71" y1="26169.71" x2="-1680.29" y2="25830.29" stroke="#0E5484" stroke-width="36"/>
<line x1="-2019.71" y1="32169.71" x2="-1680.29" y2="31830.29" stroke="#0E5484" stroke-width="36"/>
<text x="-2200" y="29000" font-size="500" fill="#0E5484" text-anchor="middle" dominant-baseline="central" transform="rotate(90 -2200 29000)">6000</text>
<line x1="-150" y1="32000" x2="-1850" y2="32000" stroke="#0E5484" stroke-width="25.2"/>
<line x1="-150" y1="42000" x2="-1850" y2="42000" stroke="#0E5484" stroke-width="25.2"/>
<line x1="-1850" y1="32000" x2="-1850" y2="42000" stroke="#0E5484" stroke-width="36"/>
<line x1="-2019.71" y1="32169.71" x2="-1680.29" y2="31830.29" stroke="#0E5484" stroke-width="36"/>
<line x1="-2019.71" y1="42169.71" x2="-1680.29" y2="41830.29" stroke="#0E5484" stroke-width="36"/>
<text x="-2200" y="37000" font-size="500" fill="#0E5484" text-anchor="middle" dominant-baseline="central" transform="rotate(90 -2200 37000)">10000</text>
<line x1="-150" y1="42000" x2="-1850" y2="42000" stroke="#0E5484" stroke-width="25.2"/>
<line x1="-150" y1="52000" x2="-1850" y2="52000" stroke="#0E5484" stroke-width="25.2"/>
<line x1="-1850" y1="42000" x2="-1850" y2="52000" stroke="#0E5484" stroke-width="36"/>
<line x1="-2019.71" y1="42169.71" x2="-1680.29" y2="41830.29" stroke="#0E5484" stroke-width="36"/>
<line x1="-2019.71" y1="52169.71" x2="-1680.29" y2="51830.29" stroke="#0E5484" stroke-width="36"/>
<text x="-2200" y="47000" font-size="500" fill="#0E5484" text-anchor="middle" dominant-baseline="central" transform="rotate(90 -2200 47000)">10000</text>
<line x1="-150" y1="52000" x2="-1850" y2="52000" stroke="#0E5484" stroke-width="25.2"/>
<line x1="-150" y1="60000" x2="-1850" y2="60000" stroke="#0E5484" stroke-width="25.2"/>
<line x1="-1850" y1="52000" x2="-1850" y2="60000" stroke="#0E5484" stroke-width="36"/>
<line x1="-2019.71" y1="52169.71" x2="-1680.29" y2="51830.29" stroke="#0E5484" stroke-width="36"/>
<line x1="-2019.71" y1="60169.71" x2="-1680.29" y2="59830.29" stroke="#0E5484" stroke-width="36"/>
<text x="-2200" y="56000" font-size="500" fill="#0E5484" text-anchor="middle" dominant-baseline="central" transform="rotate(90 -2200 56000)">8000</text>
<line x1="-150" y1="-150" x2="-2950" y2="-150" stroke="#0E5484" stroke-width="25.2"/>
<line x1="-150" y1="60150" x2="-2950" y2="60150" stroke="#0E5484" stroke-width="25.2"/>
<line x1="-2950" y1="-150" x2="-2950" y2="60150" stroke="#0E5484" stroke-width="36"/>
<line x1="-3119.71" y1="19.71" x2="-2780.29" y2="-319.71" stroke="#0E5484" stroke-width="36"/>
<line x1="-3119.71" y1="60319.71" x2="-2780.29" y2="59980.29" stroke="#0E5484" stroke-width="36"/>
<text x="-3300" y="30000" font-size="500" fill="#0E5484" text-anchor="middle" dominant-baseline="central" transform="rotate(90 -3300 30000)">60300</text>
<line x1="11000" y1="-150" x2="11000" y2="-750" stroke="#0E5484" stroke-width="25.2"/>
<line x1="-150" y1="-150" x2="-150" y2="-750" stroke="#0E5484" stroke-width="25.2"/>
<line x1="11000" y1="-750" x2="-150" y2="-750" stroke="#0E5484" stroke-width="36"/>
<line x1="10830.29" y1="-919.71" x2="11169.71" y2="-580.29" stroke="#0E5484" stroke-width="36"/>
<line x1="-319.71" y1="-919.71" x2="19.71" y2="-580.29" stroke="#0E5484" stroke-width="36"/>
<text x="5425" y="-1100" font-size="500" fill="#0E5484" text-anchor="middle" dominant-baseline="central" transform="rotate(0 5425 -1100)">11150</text>
<line x1="15000" y1="-150" x2="15000" y2="-750" stroke="#0E5484" stroke-width="25.2"/>
<line x1="11000" y1="-150" x2="11000" y2="-750" stroke="#0E5484" stroke-width="25.2"/>
<line x1="15000" y1="-750" x2="11000" y2="-750" stroke="#0E5484" stroke-width="36"/>
<line x1="14830.29" y1="-919.71" x2="15169.71" y2="-580.29" stroke="#0E5484" stroke-width="36"/>
<line x1="10830.29" y1="-919.71" x2="11169.71" y2="-580.29" stroke="#0E5484" stroke-width="36"/>
<text x="13000" y="-1100" font-size="500" fill="#0E5484" text-anchor="middle" dominant-baseline="central" transform="rotate(0 13000 -1100)">4000</text>
<line x1="37000" y1="-150" x2="37000" y2="-750" stroke="#0E5484" stroke-width="25.2"/>
<line x1="15000" y1="-150" x2="15000" y2="-750" stroke="#0E5484" stroke-width="25.2"/>
<line x1="37000" y1="-750" x2="15000" y2="-750" stroke="#0E5484" stroke-width="36"/>
<line x1="36830.29" y1="-919.71" x2="37169.71" y2="-580.29" stroke="#0E5484" stroke-width="36"/>
<line x1="14830.29" y1="-919.71" x2="15169.71" y2="-580.29" stroke="#0E5484" stroke-width="36"/>
<text x="26000" y="-1100" font-size="500" fill="#0E5484" text-anchor="middle" dominant-baseline="central" transform="rotate(0 26000 -1100)">22000</text>
<line x1="41000" y1="-150" x2="41000" y2="-750" stroke="#0E5484" stroke-width="25.2"/>
<line x1="37000" y1="-150" x2="37000" y2="-750" stroke="#0E5484" stroke-width="25.2"/>
<line x1="41000" y1="-750" x2="37000" y2="-750" stroke="#0E5484" stroke-width="36"/>
<line x1="40830.29" y1="-919.71" x2="41169.71" y2="-580.29" stroke="#0E5484" stroke-width="36"/>
<line x1="36830.29" y1="-919.71" x2="37169.71" y2="-580.29" stroke="#0E5484" stroke-width="36"/>
<text x="39000" y="-1100" font-size="500" fill="#0E5484" text-anchor="middle" dominant-baseline="central" transform="rotate(0 39000 -1100)">4000</text>
<line x1="63000" y1="-150" x2="63000" y2="-750" stroke="#0E5484" stroke-width="25.2"/>
<line x1="41000" y1="-150" x2="41000" y2="-750" stroke="#0E5484" stroke-width="25.2"/>
<line x1="63000" y1="-750" x2="41000" y2="-750" stroke="#0E5484" stroke-width="36"/>
<line x1="62830.29" y1="-919.71" x2="63169.71" y2="-580.29" stroke="#0E5484" stroke-width="36"/>
<line x1="40830.29" y1="-919.71" x2="41169.71" y2="-580.29" stroke="#0E5484" stroke-width="36"/>
<text x="52000" y="-1100" font-size="500" fill="#0E5484" text-anchor="middle" dominant-baseline="central" transform="rotate(0 52000 -1100)">22000</text>
<line x1="67000" y1="-150" x2="67000" y2="-750" stroke="#0E5484" stroke-width="25.2"/>
<line x1="63000" y1="-150" x2="63000" y2="-750" stroke="#0E5484" stroke-width="25.2"/>
<line x1="67000" y1="-750" x2="63000" y2="-750" stroke="#0E5484" stroke-width="36"/>
<line x1="66830.29" y1="-919.71" x2="67169.71" y2="-580.29" stroke="#0E5484" stroke-width="36"/>
<line x1="62830.29" y1="-919.71" x2="63169.71" y2="-580.29" stroke="#0E5484" stroke-width="36"/>
<text x="65000" y="-1100" font-size="500" fill="#0E5484" text-anchor="middle" dominant-baseline="central" transform="rotate(0 65000 -1100)">4000</text>
<line x1="88400" y1="-150" x2="88400" y2="-750" stroke="#0E5484" stroke-width="25.2"/>
<line x1="67000" y1="-150" x2="67000" y2="-750" stroke="#0E5484" stroke-width="25.2"/>
<line x1="88400" y1="-750" x2="67000" y2="-750" stroke="#0E5484" stroke-width="36"/>
<line x1="88230.29" y1="-919.71" x2="88569.71" y2="-580.29" stroke="#0E5484" stroke-width="36"/>
<line x1="66830.29" y1="-919.71" x2="67169.71" y2="-580.29" stroke="#0E5484" stroke-width="36"/>
<text x="77700" y="-1100" font-size="500" fill="#0E5484" text-anchor="middle" dominant-baseline="central" transform="rotate(0 77700 -1100)">21400</text>
<line x1="89600" y1="-150" x2="89600" y2="-750" stroke="#0E5484" stroke-width="25.2"/>
<line x1="88400" y1="-150" x2="88400" y2="-750" stroke="#0E5484" stroke-width="25.2"/>
<line x1="89600" y1="-750" x2="88400" y2="-750" stroke="#0E5484" stroke-width="36"/>
<line x1="89430.29" y1="-919.71" x2="89769.71" y2="-580.29" stroke="#0E5484" stroke-width="36"/>
<line x1="88230.29" y1="-919.71" x2="88569.71" y2="-580.29" stroke="#0E5484" stroke-width="36"/>
<text x="89000" y="-1100" font-size="500" fill="#0E5484" text-anchor="middle" dominant-baseline="central" transform="rotate(0 89000 -1100)">1200</text>
<line x1="100150" y1="-150" x2="100150" y2="-750" stroke="#0E5484" stroke-width="25.2"/>
<line x1="89600" y1="-150" x2="89600" y2="-750" stroke="#0E5484" stroke-width="25.2"/>
<line x1="100150" y1="-750" x2="89600" y2="-750" stroke="#0E5484" stroke-width="36"/>
<line x1="99980.29" y1="-919.71" x2="100319.71" y2="-580.29" stroke="#0E5484" stroke-width="36"/>
<line x1="89430.29" y1="-919.71" x2="89769.71" y2="-580.29" stroke="#0E5484" stroke-width="36"/>
<text x="94875" y="-1100" font-size="500" fill="#0E5484" text-anchor="middle" dominant-baseline="central" transform="rotate(0 94875 -1100)">10550</text>
<line x1="26000" y1="-150" x2="26000" y2="-1850" stroke="#0E5484" stroke-width="25.2"/>
<line x1="0" y1="-150" x2="0" y2="-1850" stroke="#0E5484" stroke-width="25.2"/>
<line x1="26000" y1="-1850" x2="0" y2="-1850" stroke="#0E5484" stroke-width="36"/>
<line x1="25830.29" y1="-2019.71" x2="26169.71" y2="-1680.29" stroke="#0E5484" stroke-width="36"/>
<line x1="-169.71" y1="-2019.71" x2="169.71" y2="-1680.29" stroke="#0E5484" stroke-width="36"/>
<text x="13000" y="-2200" font-size="500" fill="#0E5484" text-anchor="middle" dominant-baseline="central" transform="rotate(0 13000 -2200)">26000</text>
<line x1="30000" y1="-150" x2="30000" y2="-1850" stroke="#0E5484" stroke-width="25.2"/>
<line x1="26000" y1="-150" x2="26000" y2="-1850" stroke="#0E5484" stroke-width="25.2"/>
<line x1="30000" y1="-1850" x2="26000" y2="-1850" stroke="#0E5484" stroke-width="36"/>
<line x1="29830.29" y1="-2019.71" x2="30169.71" y2="-1680.29" stroke="#0E5484" stroke-width="36"/>
<line x1="25830.29" y1="-2019.71" x2="26169.71" y2="-1680.29" stroke="#0E5484" stroke-width="36"/>
<text x="28000" y="-2200" font-size="500" fill="#0E5484" text-anchor="middle" dominant-baseline="central" transform="rotate(0 28000 -2200)">4000</text>
<line x1="48000" y1="-150" x2="48000" y2="-1850" stroke="#0E5484" stroke-width="25.2"/>
<line x1="30000" y1="-150" x2="30000" y2="-1850" stroke="#0E5484" stroke-width="25.2"/>
<line x1="48000" y1="-1850" x2="30000" y2="-1850" stroke="#0E5484" stroke-width="36"/>
<line x1="47830.29" y1="-2019.71" x2="48169.71" y2="-1680.29" stroke="#0E5484" stroke-width="36"/>
<line x1="29830.29" y1="-2019.71" x2="30169.71" y2="-1680.29" stroke="#0E5484" stroke-width="36"/>
<text x="39000" y="-2200" font-size="500" fill="#0E5484" text-anchor="middle" dominant-baseline="central" transform="rotate(0 39000 -2200)">18000</text>
<line x1="52000" y1="-150" x2="52000" y2="-1850" stroke="#0E5484" stroke-width="25.2"/>
<line x1="48000" y1="-150" x2="48000" y2="-1850" stroke="#0E5484" stroke-width="25.2"/>
<line x1="52000" y1="-1850" x2="48000" y2="-1850" stroke="#0E5484" stroke-width="36"/>
<line x1="51830.29" y1="-2019.71" x2="52169.71" y2="-1680.29" stroke="#0E5484" stroke-width="36"/>
<line x1="47830.29" y1="-2019.71" x2="48169.71" y2="-1680.29" stroke="#0E5484" stroke-width="36"/>
<text x="50000" y="-2200" font-size="500" fill="#0E5484" text-anchor="middle" dominant-baseline="central" transform="rotate(0 50000 -2200)">4000</text>
<line x1="70000" y1="-150" x2="70000" y2="-1850" stroke="#0E5484" stroke-width="25.2"/>
<line x1="52000" y1="-150" x2="52000" y2="-1850" stroke="#0E5484" stroke-width="25.2"/>
<line x1="70000" y1="-1850" x2="52000" y2="-1850" stroke="#0E5484" stroke-width="36"/>
<line x1="69830.29" y1="-2019.71" x2="70169.71" y2="-1680.29" stroke="#0E5484" stroke-width="36"/>
<line x1="51830.29" y1="-2019.71" x2="52169.71" y2="-1680.29" stroke="#0E5484" stroke-width="36"/>
<text x="61000" y="-2200" font-size="500" fill="#0E5484" text-anchor="middle" dominant-baseline="central" transform="rotate(0 61000 -2200)">18000</text>
<line x1="76000" y1="-150" x2="76000" y2="-1850" stroke="#0E5484" stroke-width="25.2"/>
<line x1="70000" y1="-150" x2="70000" y2="-1850" stroke="#0E5484" stroke-width="25.2"/>
<line x1="76000" y1="-1850" x2="70000" y2="-1850" stroke="#0E5484" stroke-width="36"/>
<line x1="75830.29" y1="-2019.71" x2="76169.71" y2="-1680.29" stroke="#0E5484" stroke-width="36"/>
<line x1="69830.29" y1="-2019.71" x2="70169.71" y2="-1680.29" stroke="#0E5484" stroke-width="36"/>
<text x="73000" y="-2200" font-size="500" fill="#0E5484" text-anchor="middle" dominant-baseline="central" transform="rotate(0 73000 -2200)">6000</text>
<line x1="78000" y1="-150" x2="78000" y2="-1850" stroke="#0E5484" stroke-width="25.2"/>
<line x1="76000" y1="-150" x2="76000" y2="-1850" stroke="#0E5484" stroke-width="25.2"/>
<line x1="78000" y1="-1850" x2="76000" y2="-1850" stroke="#0E5484" stroke-width="36"/>
<line x1="77830.29" y1="-2019.71" x2="78169.71" y2="-1680.29" stroke="#0E5484" stroke-width="36"/>
<line x1="75830.29" y1="-2019.71" x2="76169.71" y2="-1680.29" stroke="#0E5484" stroke-width="36"/>
<text x="77000" y="-2200" font-size="500" fill="#0E5484" text-anchor="middle" dominant-baseline="central" transform="rotate(0 77000 -2200)">2000</text>
<line x1="86000" y1="-150" x2="86000" y2="-1850" stroke="#0E5484" stroke-width="25.2"/>
<line x1="78000" y1="-150" x2="78000" y2="-1850" stroke="#0E5484" stroke-width="25.2"/>
<line x1="86000" y1="-1850" x2="78000" y2="-1850" stroke="#0E5484" stroke-width="36"/>
<line x1="85830.29" y1="-2019.71" x2="86169.71" y2="-1680.29" stroke="#0E5484" stroke-width="36"/>
<line x1="77830.29" y1="-2019.71" x2="78169.71" y2="-1680.29" stroke="#0E5484" stroke-width="36"/>
<text x="82000" y="-2200" font-size="500" fill="#0E5484" text-anchor="middle" dominant-baseline="central" transform="rotate(0 82000 -2200)">8000</text>
<line x1="100000" y1="-150" x2="100000" y2="-1850" stroke="#0E5484" stroke-width="25.2"/>
<line x1="86000" y1="-150" x2="86000" y2="-1850" stroke="#0E5484" stroke-width="25.2"/>
<line x1="100000" y1="-1850" x2="86000" y2="-1850" stroke="#0E5484" stroke-width="36"/>
<line x1="99830.29" y1="-2019.71" x2="100169.71" y2="-1680.29" stroke="#0E5484" stroke-width="36"/>
<line x1="85830.29" y1="-2019.71" x2="86169.71" y2="-1680.29" stroke="#0E5484" stroke-width="36"/>
<text x="93000" y="-2200" font-size="500" fill="#0E5484" text-anchor="middle" dominant-baseline="central" transform="rotate(0 93000 -2200)">14000</text>
<line x1="100150" y1="-150" x2="100150" y2="-2950" stroke="#0E5484" stroke-width="25.2"/>
<line x1="-150" y1="-150" x2="-150" y2="-2950" stroke="#0E5484" stroke-width="25.2"/>
<line x1="100150" y1="-2950" x2="-150" y2="-2950" stroke="#0E5484" stroke-width="36"/>
<line x1="99980.29" y1="-3119.71" x2="100319.71" y2="-2780.29" stroke="#0E5484" stroke-width="36"/>
<line x1="-319.71" y1="-3119.71" x2="19.71" y2="-2780.29" stroke="#0E5484" stroke-width="36"/>
<text x="50000" y="-3300" font-size="500" fill="#0E5484" text-anchor="middle" dominant-baseline="central" transform="rotate(0 50000 -3300)">100300</text>
<line x1="100150" y1="18500" x2="100750" y2="18500" stroke="#0E5484" stroke-width="25.2"/>
<line x1="100150" y1="-150" x2="100750" y2="-150" stroke="#0E5484" stroke-width="25.2"/>
<line x1="100750" y1="18500" x2="100750" y2="-150" stroke="#0E5484" stroke-width="36"/>
<line x1="100919.71" y1="18330.29" x2="100580.29" y2="18669.71" stroke="#0E5484" stroke-width="36"/>
<line x1="100919.71" y1="-319.71" x2="100580.29" y2="19.71" stroke="#0E5484" stroke-width="36"/>
<text x="101100" y="9175" font-size="500" fill="#0E5484" text-anchor="middle" dominant-baseline="central" transform="rotate(-90 101100 9175)">18650</text>
<line x1="100150" y1="21500" x2="100750" y2="21500" stroke="#0E5484" stroke-width="25.2"/>
<line x1="100150" y1="18500" x2="100750" y2="18500" stroke="#0E5484" stroke-width="25.2"/>
<line x1="100750" y1="21500" x2="100750" y2="18500" stroke="#0E5484" stroke-width="36"/>
<line x1="100919.71" y1="21330.29" x2="100580.29" y2="21669.71" stroke="#0E5484" stroke-width="36"/>
<line x1="100919.71" y1="18330.29" x2="100580.29" y2="18669.71" stroke="#0E5484" stroke-width="36"/>
<text x="101100" y="20000" font-size="500" fill="#0E5484" text-anchor="middle" dominant-baseline="central" transform="rotate(-90 101100 20000)">3000</text>
<line x1="100150" y1="43000" x2="100750" y2="43000" stroke="#0E5484" stroke-width="25.2"/>
<line x1="100150" y1="21500" x2="100750" y2="21500" stroke="#0E5484" stroke-width="25.2"/>
<line x1="100750" y1="43000" x2="100750" y2="21500" stroke="#0E5484" stroke-width="36"/>
<line x1="100919.71" y1="42830.29" x2="100580.29" y2="43169.71" stroke="#0E5484" stroke-width="36"/>
<line x1="100919.71" y1="21330.29" x2="100580.29" y2="21669.71" stroke="#0E5484" stroke-width="36"/>
<text x="101100" y="32250" font-size="500" fill="#0E5484" text-anchor="middle" dominant-baseline="central" transform="rotate(-90 101100 32250)">21500</text>
<line x1="100150" y1="47000" x2="100750" y2="47000" stroke="#0E5484" stroke-width="25.2"/>
<line x1="100150" y1="43000" x2="100750" y2="43000" stroke="#0E5484" stroke-width="25.2"/>
<line x1="100750" y1="47000" x2="100750" y2="43000" stroke="#0E5484" stroke-width="36"/>
<line x1="100919.71" y1="46830.29" x2="100580.29" y2="47169.71" stroke="#0E5484" stroke-width="36"/>
<line x1="100919.71" y1="42830.29" x2="100580.29" y2="43169.71" stroke="#0E5484" stroke-width="36"/>
<text x="101100" y="45000" font-size="500" fill="#0E5484" text-anchor="middle" dominant-baseline="central" transform="rotate(-90 101100 45000)">4000</text>
<line x1="100150" y1="60150" x2="100750" y2="60150" stroke="#0E5484" stroke-width="25.2"/>
<line x1="100150" y1="47000" x2="100750" y2="47000" stroke="#0E5484" stroke-width="25.2"/>
<line x1="100750" y1="60150" x2="100750" y2="47000" stroke="#0E5484" stroke-width="36"/>
<line x1="100919.71" y1="59980.29" x2="100580.29" y2="60319.71" stroke="#0E5484" stroke-width="36"/>
<line x1="100919.71" y1="46830.29" x2="100580.29" y2="47169.71" stroke="#0E5484" stroke-width="36"/>
<text x="101100" y="53575" font-size="500" fill="#0E5484" text-anchor="middle" dominant-baseline="central" transform="rotate(-90 101100 53575)">13150</text>
<line x1="100150" y1="14000" x2="101850" y2="14000" stroke="#0E5484" stroke-width="25.2"/>
<line x1="100150" y1="0" x2="101850" y2="0" stroke="#0E5484" stroke-width="25.2"/>
<line x1="101850" y1="14000" x2="101850" y2="0" stroke="#0E5484" stroke-width="36"/>
<line x1="102019.71" y1="13830.29" x2="101680.29" y2="14169.71" stroke="#0E5484" stroke-width="36"/>
<line x1="102019.71" y1="-169.71" x2="101680.29" y2="169.71" stroke="#0E5484" stroke-width="36"/>
<text x="102200" y="7000" font-size="500" fill="#0E5484" text-anchor="middle" dominant-baseline="central" transform="rotate(-90 102200 7000)">14000</text>
<line x1="100150" y1="26000" x2="101850" y2="26000" stroke="#0E5484" stroke-width="25.2"/>
<line x1="100150" y1="14000" x2="101850" y2="14000" stroke="#0E5484" stroke-width="25.2"/>
<line x1="101850" y1="26000" x2="101850" y2="14000" stroke="#0E5484" stroke-width="36"/>
<line x1="102019.71" y1="25830.29" x2="101680.29" y2="26169.71" stroke="#0E5484" stroke-width="36"/>
<line x1="102019.71" y1="13830.29" x2="101680.29" y2="14169.71" stroke="#0E5484" stroke-width="36"/>
<text x="102200" y="20000" font-size="500" fill="#0E5484" text-anchor="middle" dominant-baseline="central" transform="rotate(-90 102200 20000)">12000</text>
<line x1="100150" y1="32000" x2="101850" y2="32000" stroke="#0E5484" stroke-width="25.2"/>
<line x1="100150" y1="26000" x2="101850" y2="26000" stroke="#0E5484" stroke-width="25.2"/>
<line x1="101850" y1="32000" x2="101850" y2="26000" stroke="#0E5484" stroke-width="36"/>
<line x1="102019.71" y1="31830.29" x2="101680.29" y2="32169.71" stroke="#0E5484" stroke-width="36"/>
<line x1="102019.71" y1="25830.29" x2="101680.29" y2="26169.71" stroke="#0E5484" stroke-width="36"/>
<text x="102200" y="29000" font-size="500" fill="#0E5484" text-anchor="middle" dominant-baseline="central" transform="rotate(-90 102200 29000)">6000</text>
<line x1="100150" y1="42000" x2="101850" y2="42000" stroke="#0E5484" stroke-width="25.2"/>
<line x1="100150" y1="32000" x2="101850" y2="32000" stroke="#0E5484" stroke-width="25.2"/>
<line x1="101850" y1="42000" x2="101850" y2="32000" stroke="#0E5484" stroke-width="36"/>
<line x1="102019.71" y1="41830.29" x2="101680.29" y2="42169.71" stroke="#0E5484" stroke-width="36"/>
<line x1="102019.71" y1="31830.29" x2="101680.29" y2="32169.71" stroke="#0E5484" stroke-width="36"/>
<text x="102200" y="37000" font-size="500" fill="#0E5484" text-anchor="middle" dominant-baseline="central" transform="rotate(-90 102200 37000)">10000</text>
<line x1="100150" y1="52000" x2="101850" y2="52000" stroke="#0E5484" stroke-width="25.2"/>
<line x1="100150" y1="42000" x2="101850" y2="42000" stroke="#0E5484" stroke-width="25.2"/>
<line x1="101850" y1="52000" x2="101850" y2="42000" stroke="#0E5484" stroke-width="36"/>
<line x1="102019.71" y1="51830.29" x2="101680.29" y2="52169.71" stroke="#0E5484" stroke-width="36"/>
<line x1="102019.71" y1="41830.29" x2="101680.29" y2="42169.71" stroke="#0E5484" stroke-width="36"/>
<text x="102200" y="47000" font-size="500" fill="#0E5484" text-anchor="middle" dominant-baseline="central" transform="rotate(-90 102200 47000)">10000</text>
<line x1="100150" y1="60000" x2="101850" y2="60000" stroke="#0E5484" stroke-width="25.2"/>
<line x1="100150" y1="52000" x2="101850" y2="52000" stroke="#0E5484" stroke-width="25.2"/>
<line x1="101850" y1="60000" x2="101850" y2="52000" stroke="#0E5484" stroke-width="36"/>
<line x1="102019.71" y1="59830.29" x2="101680.29" y2="60169.71" stroke="#0E5484" stroke-width="36"/>
<line x1="102019.71" y1="51830.29" x2="101680.29" y2="52169.71" stroke="#0E5484" stroke-width="36"/>
<text x="102200" y="56000" font-size="500" fill="#0E5484" text-anchor="middle" dominant-baseline="central" transform="rotate(-90 102200 56000)">8000</text>
<line x1="100150" y1="60150" x2="102950" y2="60150" stroke="#0E5484" stroke-width="25.2"/>
<line x1="100150" y1="-150" x2="102950" y2="-150" stroke="#0E5484" stroke-width="25.2"/>
<line x1="102950" y1="60150" x2="102950" y2="-150" stroke="#0E5484" stroke-width="36"/>
<line x1="103119.71" y1="59980.29" x2="102780.29" y2="60319.71" stroke="#0E5484" stroke-width="36"/>
<line x1="103119.71" y1="-319.71" x2="102780.29" y2="19.71" stroke="#0E5484" stroke-width="36"/>
<text x="103300" y="30000" font-size="500" fill="#0E5484" text-anchor="middle" dominant-baseline="central" transform="rotate(-90 103300 30000)">60300</text>
<line x1="39000" y1="26100" x2="39000" y2="25900" stroke="#0E5484" stroke-width="36"/>
<line x1="39169.71" y1="25930.29" x2="38830.29" y2="26269.71" stroke="#0E5484" stroke-width="36"/>
<line x1="39169.71" y1="25730.29" x2="38830.29" y2="26069.71" stroke="#0E5484" stroke-width="36"/>
<text x="39000" y="25185" font-size="500" fill="#0E5484" text-anchor="middle" dominant-baseline="central" transform="rotate(-90 39000 25185)">200</text>
<line x1="39000" y1="150" x2="39000" y2="-150" stroke="#0E5484" stroke-width="36"/>
<line x1="39169.71" y1="-19.71" x2="38830.29" y2="319.71" stroke="#0E5484" stroke-width="36"/>
<line x1="39169.71" y1="-319.71" x2="38830.29" y2="19.71" stroke="#0E5484" stroke-width="36"/>
<text x="39000" y="865" font-size="500" fill="#0E5484" text-anchor="middle" dominant-baseline="central" transform="rotate(-90 39000 865)">300</text>
</g>
<g><polygon points="99250,-2700 98800,-1260 99250,-1575 99700,-1260" fill="#333333" transform="rotate(0 99250 -1800)"/><text x="99250" y="-3116" font-size="520" fill="#333333" text-anchor="middle" dominant-baseline="central">N</text></g>
<g><rect x="-31100" y="85060" width="2500" height="280" fill="#333333"/><rect x="-28600" y="85060" width="2500" height="280" fill="none" stroke="#333333" stroke-width="36"/><text x="-31100" y="85740" font-size="400" fill="#333333" text-anchor="start" dominant-baseline="central">0</text><text x="-26100" y="85740" font-size="400" fill="#333333" text-anchor="middle" dominant-baseline="central">5 m</text></g>
<g><rect x="124300" y="85060" width="6800" height="3680" fill="none" stroke="#333333" stroke-width="36"/><text x="124640" y="85520" font-size="304" fill="#888888" dominant-baseline="central">PROJECT</text><text x="130760" y="85520" font-size="380" fill="#333333" text-anchor="end" dominant-baseline="central">City Museum</text><text x="124640" y="86440" font-size="304" fill="#888888" dominant-baseline="central">DRAWN BY</text><text x="130760" y="86440" font-size="380" fill="#333333" text-anchor="end" dominant-baseline="central">ArchLang</text><line x1="124300" y1="85980" x2="131100" y2="85980" stroke="#333333" stroke-width="18"/><text x="124640" y="87360" font-size="304" fill="#888888" dominant-baseline="central">DATE</text><text x="130760" y="87360" font-size="380" fill="#333333" text-anchor="end" dominant-baseline="central">2026-07-26</text><line x1="124300" y1="86900" x2="131100" y2="86900" stroke="#333333" stroke-width="18"/><text x="124640" y="88280" font-size="304" fill="#888888" dominant-baseline="central">SCALE</text><text x="130760" y="88280" font-size="380" fill="#333333" text-anchor="end" dominant-baseline="central">1:200</text><line x1="124300" y1="87820" x2="131100" y2="87820" stroke="#333333" stroke-width="18"/></g>
</svg>