<svg xmlns="http://www.w3.org/2000/svg" xmlns:inkscape="http://www.inkscape.org/namespaces/inkscape"  viewBox="-1324 -1324 9648 10213.6" font-family="Helvetica, Arial, sans-serif">
<defs><pattern id="poche" patternUnits="userSpaceOnUse" width="93.6" height="93.6" patternTransform="rotate(45)"><rect width="93.6" height="93.6" fill="#e9e4db"/><line x1="0" y1="0" x2="0" y2="93.6" stroke="#b9b1a4" stroke-width="8.06"/></pattern></defs>
<rect x="-1324" y="-1324" width="9648" height="10213.6" fill="#ffffff"/>
<g id="A-FLOR" inkscape:groupmode="layer" inkscape:label="A-FLOR">
<polygon points="0,0 4000,0 4000,6000 0,6000" fill="#fbfaf7"/>
<polygon points="4000,0 7000,0 7000,3000 4000,3000" fill="#fbfaf7"/>
<polygon points="4000,3000 7000,3000 7000,4400 4000,4400" fill="#fbfaf7"/>
<polygon points="4000,4400 7000,4400 7000,6000 4000,6000" fill="#fbfaf7"/>
</g>
<g id="A-FURN" inkscape:groupmode="layer" inkscape:label="A-FURN">
<polygon points="300,250 1100,250 1100,850 300,850" fill="#f4f2ee" stroke="#a8a29a" stroke-width="11.52"/>
<polygon points="636.08,406 644.47,407.67 651.58,412.42 656.33,419.53 658,427.92 658,744.08 656.33,752.47 651.58,759.58 644.47,764.33 636.08,766 405.92,766 397.53,764.33 390.42,759.58 385.67,752.47 384,744.08 384,427.92 385.67,419.53 390.42,412.42 397.53,407.67 405.92,406" fill="#ffffff" stroke="#a8a29a" stroke-width="11.52"/>
<circle cx="521" cy="586" r="32.88" fill="#f4f2ee" stroke="#a8a29a" stroke-width="6.34"/>
<polygon points="994.08,406 1002.47,407.67 1009.58,412.42 1014.33,419.53 1016,427.92 1016,744.08 1014.33,752.47 1009.58,759.58 1002.47,764.33 994.08,766 763.92,766 755.53,764.33 748.42,759.58 743.67,752.47 742,744.08 742,427.92 743.67,419.53 748.42,412.42 755.53,407.67 763.92,406" fill="#ffffff" stroke="#a8a29a" stroke-width="11.52"/>
<circle cx="879" cy="586" r="32.88" fill="#f4f2ee" stroke="#a8a29a" stroke-width="6.34"/>
<circle cx="700" cy="286" r="18" fill="#a8a29a" stroke="#a8a29a" stroke-width="11.52"/>
<line x1="700" y1="286" x2="700" y2="418" stroke="#a8a29a" stroke-width="6.34"/>
<polygon points="1200,250 1800,250 1800,850 1200,850" fill="#f4f2ee" stroke="#a8a29a" stroke-width="11.52"/>
<line x1="1200" y1="742" x2="1800" y2="742" stroke="#a8a29a" stroke-width="6.34"/>
<polygon points="1950,250 2550,250 2550,850 1950,850" fill="#f4f2ee" stroke="#a8a29a" stroke-width="11.52"/>
<circle cx="2130" cy="430" r="96" fill="none" stroke="#a8a29a" stroke-width="11.52"/>
<circle cx="2130" cy="430" r="57.6" fill="none" stroke="#a8a29a" stroke-width="6.34"/>
<circle cx="2130" cy="670" r="96" fill="none" stroke="#a8a29a" stroke-width="11.52"/>
<circle cx="2130" cy="670" r="57.6" fill="none" stroke="#a8a29a" stroke-width="6.34"/>
<circle cx="2370" cy="430" r="96" fill="none" stroke="#a8a29a" stroke-width="11.52"/>
<circle cx="2370" cy="430" r="57.6" fill="none" stroke="#a8a29a" stroke-width="6.34"/>
<circle cx="2370" cy="670" r="96" fill="none" stroke="#a8a29a" stroke-width="11.52"/>
<circle cx="2370" cy="670" r="57.6" fill="none" stroke="#a8a29a" stroke-width="6.34"/>
<line x1="1950" y1="802" x2="2550" y2="802" stroke="#a8a29a" stroke-width="6.34"/>
<polygon points="2700,250 3300,250 3300,900 2700,900" fill="#f4f2ee" stroke="#a8a29a" stroke-width="11.52"/>
<polygon points="2730,280 3270,280 3270,870 2730,870" fill="none" stroke="#a8a29a" stroke-width="6.34"/>
<line x1="2700" y1="484" x2="3300" y2="484" stroke="#a8a29a" stroke-width="11.52"/>
<line x1="3216" y1="328" x2="3216" y2="432" stroke="#a8a29a" stroke-width="11.52"/>
<polygon points="2260,4300 2294.44,4306.85 2323.64,4326.36 2343.15,4355.56 2350,4390 2350,5110 2343.15,5144.44 2323.64,5173.64 2294.44,5193.15 2260,5200 440,5200 405.56,5193.15 376.36,5173.64 356.85,5144.44 350,5110 350,4390 356.85,4355.56 376.36,4326.36 405.56,4306.85 440,4300" fill="#f4f2ee" stroke="#a8a29a" stroke-width="11.52"/>
<polygon points="350,4390 590,4390 590,5200 350,5200" fill="#f4f2ee" stroke="#a8a29a" stroke-width="11.52"/>
<polygon points="2110,4390 2350,4390 2350,5200 2110,5200" fill="#f4f2ee" stroke="#a8a29a" stroke-width="11.52"/>
<line x1="350" y1="4462" x2="2350" y2="4462" stroke="#a8a29a" stroke-width="6.34"/>
<line x1="1096.67" y1="4462" x2="1096.67" y2="5110" stroke="#a8a29a" stroke-width="6.34"/>
<line x1="1603.33" y1="4462" x2="1603.33" y2="5110" stroke="#a8a29a" stroke-width="6.34"/>
<line x1="590" y1="5110" x2="2110" y2="5110" stroke="#a8a29a" stroke-width="6.34"/>
<polygon points="4300,300 5800,300 5800,2300 4300,2300" fill="#f4f2ee" stroke="#a8a29a" stroke-width="11.52"/>
<polygon points="4300,300 5800,300 5800,420 4300,420" fill="#f4f2ee" stroke="#a8a29a" stroke-width="11.52"/>
<polygon points="4907,480 4944.5,487.46 4976.3,508.7 4997.54,540.5 5005,578 5005,662 4997.54,699.5 4976.3,731.3 4944.5,752.54 4907,760 4533,760 4495.5,752.54 4463.7,731.3 4442.46,699.5 4435,662 4435,578 4442.46,540.5 4463.7,508.7 4495.5,487.46 4533,480" fill="#ffffff" stroke="#a8a29a" stroke-width="11.52"/>
<polygon points="5567,480 5604.5,487.46 5636.3,508.7 5657.54,540.5 5665,578 5665,662 5657.54,699.5 5636.3,731.3 5604.5,752.54 5567,760 5193,760 5155.5,752.54 5123.7,731.3 5102.46,699.5 5095,662 5095,578 5102.46,540.5 5123.7,508.7 5155.5,487.46 5193,480" fill="#ffffff" stroke="#a8a29a" stroke-width="11.52"/>
<line x1="4300" y1="940" x2="5800" y2="940" stroke="#a8a29a" stroke-width="6.34"/>
<line x1="4300" y1="1020" x2="5800" y2="1020" stroke="#a8a29a" stroke-width="6.34"/>
<line x1="5800" y1="940" x2="5470" y2="1020" stroke="#a8a29a" stroke-width="6.34"/>
<polygon points="6000,5000 6900,5000 6900,5900 6000,5900" fill="#ffffff" stroke="#a8a29a" stroke-width="11.52"/>
<polygon points="6072,5072 6828,5072 6828,5828 6072,5828" fill="#ffffff" stroke="#a8a29a" stroke-width="6.34"/>
<line x1="6072" y1="5072" x2="6828" y2="5828" stroke="#a8a29a" stroke-width="6.34"/>
<line x1="6828" y1="5072" x2="6072" y2="5828" stroke="#a8a29a" stroke-width="6.34"/>
<circle cx="6450" cy="5450" r="45" fill="none" stroke="#a8a29a" stroke-width="11.52"/>
<circle cx="6450" cy="5450" r="16.2" fill="#a8a29a" stroke="#a8a29a" stroke-width="6.34"/>
<polygon points="5200,4450 5800,4450 5800,4900 5200,4900" fill="#f4f2ee" stroke="#a8a29a" stroke-width="11.52"/>
<polygon points="5704,4702 5697.05,4739.27 5676.67,4774 5644.25,4803.82 5602,4826.71 5552.8,4841.09 5500,4846 5447.2,4841.09 5398,4826.71 5355.75,4803.82 5323.33,4774 5302.95,4739.27 5296,4702 5302.95,4664.73 5323.33,4630 5355.75,4600.18 5398,4577.29 5447.2,4562.91 5500,4558 5552.8,4562.91 5602,4577.29 5644.25,4600.18 5676.67,4630 5697.05,4664.73" fill="#ffffff" stroke="#a8a29a" stroke-width="11.52"/>
<polygon points="5663.2,4702 5657.64,4731.82 5641.34,4759.6 5615.4,4783.46 5581.6,4801.77 5542.24,4813.27 5500,4817.2 5457.76,4813.27 5418.4,4801.77 5384.6,4783.46 5358.66,4759.6 5342.36,4731.82 5336.8,4702 5342.36,4672.18 5358.66,4644.4 5384.6,4620.54 5418.4,4602.23 5457.76,4590.73 5500,4586.8 5542.24,4590.73 5581.6,4602.23 5615.4,4620.54 5641.34,4644.4 5657.64,4672.18" fill="#ffffff" stroke="#a8a29a" stroke-width="6.34"/>
<polygon points="5470,4463.5 5530,4463.5 5530,4508.5 5470,4508.5" fill="#f4f2ee" stroke="#a8a29a" stroke-width="11.52"/>
<line x1="5500" y1="4508.5" x2="5500" y2="4644.4" stroke="#a8a29a" stroke-width="6.34"/>
<polygon points="5700,5900 5300,5900 5300,5746 5700,5746" fill="#f4f2ee" stroke="#a8a29a" stroke-width="11.52"/>
<line x1="5676" y1="5853.8" x2="5324" y2="5853.8" stroke="#a8a29a" stroke-width="6.34"/>
<polygon points="5340,5462.08 5345.45,5397.08 5361.44,5336.5 5386.86,5284.48 5420,5244.57 5458.59,5219.48 5500,5210.92 5541.41,5219.48 5580,5244.57 5613.14,5284.48 5638.56,5336.5 5654.55,5397.08 5660,5462.08 5654.55,5527.08 5638.56,5587.66 5613.14,5639.68 5580,5679.59 5541.41,5704.68 5500,5713.24 5458.59,5704.68 5420,5679.59 5386.86,5639.68 5361.44,5587.66 5345.45,5527.08" fill="#ffffff" stroke="#a8a29a" stroke-width="11.52"/>
<polygon points="5375.2,5462.08 5379.45,5411.38 5391.92,5364.13 5411.75,5323.55 5437.6,5292.42 5467.7,5272.85 5500,5266.18 5532.3,5272.85 5562.4,5292.42 5588.25,5323.55 5608.08,5364.13 5620.55,5411.38 5624.8,5462.08 5620.55,5512.78 5608.08,5560.03 5588.25,5600.61 5562.4,5631.74 5532.3,5651.31 5500,5657.98 5467.7,5651.31 5437.6,5631.74 5411.75,5600.61 5391.92,5560.03 5379.45,5512.78" fill="#ffffff" stroke="#a8a29a" stroke-width="6.34"/>
<circle cx="5500" cy="5823" r="20" fill="#a8a29a" stroke="#a8a29a" stroke-width="11.52"/>
</g>
<g id="A-WALL" inkscape:groupmode="layer" inkscape:label="A-WALL">
<path d="M -100,-100 L 7100,-100 L 7100,900 L 6900,900 L 6900,100 L 4050,100 L 4050,2950 L 6000,2950 L 6000,3050 L 4050,3050 L 4050,3250 L 3950,3250 L 3950,100 L 100,100 L 100,1250 L -100,1250 Z M -100,2750 L 100,2750 L 100,5900 L 2500,5900 L 2500,6100 L -100,6100 Z M 3500,5900 L 3950,5900 L 3950,4150 L 4050,4150 L 4050,4350 L 4200,4350 L 4200,4450 L 4050,4450 L 4050,5900 L 6900,5900 L 6900,5550 L 7100,5550 L 7100,6100 L 3500,6100 Z M 5000,4350 L 6900,4350 L 6900,3050 L 6800,3050 L 6800,2950 L 6900,2950 L 6900,2100 L 7100,2100 L 7100,4850 L 6900,4850 L 6900,4450 L 5000,4450 Z" fill="url(#poche)" fill-rule="nonzero"/>
<path d="M -100,-100 L 7100,-100 L 7100,900 L 6900,900 L 6900,100 L 4050,100 L 4050,2950 L 6000,2950 L 6000,3050 L 4050,3050 L 4050,3250 L 3950,3250 L 3950,100 L 100,100 L 100,1250 L -100,1250 Z M -100,2750 L 100,2750 L 100,5900 L 2500,5900 L 2500,6100 L -100,6100 Z M 3500,5900 L 3950,5900 L 3950,4150 L 4050,4150 L 4050,4350 L 4200,4350 L 4200,4450 L 4050,4450 L 4050,5900 L 6900,5900 L 6900,5550 L 7100,5550 L 7100,6100 L 3500,6100 Z M 5000,4350 L 6900,4350 L 6900,3050 L 6800,3050 L 6800,2950 L 6900,2950 L 6900,2100 L 7100,2100 L 7100,4850 L 6900,4850 L 6900,4450 L 5000,4450 Z" fill="none" stroke="#1b1b1b" stroke-width="20.16" stroke-linejoin="miter" stroke-miterlimit="4"/>
</g>
<g id="A-DOOR" inkscape:groupmode="layer" inkscape:label="A-DOOR">
<polygon points="3500,5900 2500,5900 2500,6100 3500,6100" fill="none"/>
<line x1="3500" y1="6000" x2="3500" y2="5000" stroke="#555555" stroke-width="14.98"/>
<path d="M 3500,5000 A 1000 1000 0 0 0 2500,6000" fill="none" stroke="#555555" stroke-width="11.52" stroke-dasharray="46.08 34.56"/>
<polygon points="6000,3050 6800,3050 6800,2950 6000,2950" fill="none"/>
<line x1="6800" y1="3000" x2="6800" y2="2200" stroke="#555555" stroke-width="14.98"/>
<path d="M 6800,2200 A 800 800 0 0 0 6000,3000" fill="none" stroke="#555555" stroke-width="11.52" stroke-dasharray="46.08 34.56"/>
<polygon points="4200,4450 5000,4450 5000,4350 4200,4350" fill="none"/>
<line x1="4200" y1="4400" x2="4200" y2="3600" stroke="#555555" stroke-width="14.98"/>
<path d="M 4200,3600 A 800 800 0 0 1 5000,4400" fill="none" stroke="#555555" stroke-width="11.52" stroke-dasharray="46.08 34.56"/>
<polygon points="3950,3250 3950,4150 4050,4150 4050,3250" fill="none"/>
</g>
<g id="A-GLAZ" inkscape:groupmode="layer" inkscape:label="A-GLAZ">
<polygon points="120.16,2750 120.16,1250 -120.16,1250 -120.16,2750" fill="#ffffff"/>
<line x1="100" y1="2750" x2="100" y2="1250" stroke="#1b1b1b" stroke-width="11.52"/>
<line x1="-100" y1="2750" x2="-100" y2="1250" stroke="#1b1b1b" stroke-width="11.52"/>
<line x1="0" y1="2750" x2="0" y2="1250" stroke="#3a6ea5" stroke-width="11.52"/>
<polygon points="6879.84,900 6879.84,2100 7120.16,2100 7120.16,900" fill="#ffffff"/>
<line x1="6900" y1="900" x2="6900" y2="2100" stroke="#1b1b1b" stroke-width="11.52"/>
<line x1="7100" y1="900" x2="7100" y2="2100" stroke="#1b1b1b" stroke-width="11.52"/>
<line x1="7000" y1="900" x2="7000" y2="2100" stroke="#3a6ea5" stroke-width="11.52"/>
<polygon points="6879.84,4850 6879.84,5550 7120.16,5550 7120.16,4850" fill="#ffffff"/>
<line x1="6900" y1="4850" x2="6900" y2="5550" stroke="#1b1b1b" stroke-width="11.52"/>
<line x1="7100" y1="4850" x2="7100" y2="5550" stroke="#1b1b1b" stroke-width="11.52"/>
<line x1="7000" y1="4850" x2="7000" y2="5550" stroke="#3a6ea5" stroke-width="11.52"/>
</g>
<g id="A-ANNO-TEXT" inkscape:groupmode="layer" inkscape:label="A-ANNO-TEXT">
<text x="2000" y="2956.8" font-size="216" fill="#222222" text-anchor="middle" dominant-baseline="central" font-weight="600">Living / Kitchen</text>
<text x="2000" y="3194.4" font-size="158.4" fill="#7a7a7a" text-anchor="middle" dominant-baseline="central">24.0 m²</text>
<text x="6400" y="556.8" font-size="216" fill="#222222" text-anchor="middle" dominant-baseline="central" font-weight="600">Bedroom</text>
<text x="6400" y="794.4" font-size="158.4" fill="#7a7a7a" text-anchor="middle" dominant-baseline="central">9.0 m²</text>
<text x="5500" y="3656.8" font-size="216" fill="#222222" text-anchor="middle" dominant-baseline="central" font-weight="600">Hall</text>
<text x="5500" y="3894.4" font-size="158.4" fill="#7a7a7a" text-anchor="middle" dominant-baseline="central">4.2 m²</text>
<text x="4600" y="5156.8" font-size="216" fill="#222222" text-anchor="middle" dominant-baseline="central" font-weight="600">Bath</text>
<text x="4600" y="5394.4" font-size="158.4" fill="#7a7a7a" text-anchor="middle" dominant-baseline="central">4.8 m²</text>
</g>
<g id="A-ANNO-DIMS" inkscape:groupmode="layer" inkscape:label="A-ANNO-DIMS">
<line x1="4000" y1="-100" x2="4000" y2="-350" stroke="#0E5484" stroke-width="8.06"/>
<line x1="0" y1="-100" x2="0" y2="-350" stroke="#0E5484" stroke-width="8.06"/>
<line x1="4000" y1="-350" x2="0" y2="-350" stroke="#0E5484" stroke-width="11.52"/>
<line x1="3938.91" y1="-411.09" x2="4061.09" y2="-288.91" stroke="#0E5484" stroke-width="11.52"/>
<line x1="-61.09" y1="-411.09" x2="61.09" y2="-288.91" stroke="#0E5484" stroke-width="11.52"/>
<text x="2000" y="-450.8" font-size="144" fill="#0E5484" text-anchor="middle" dominant-baseline="central" transform="rotate(0 2000 -450.8)">4000</text>
<line x1="7000" y1="-100" x2="7000" y2="-350" stroke="#0E5484" stroke-width="8.06"/>
<line x1="4000" y1="-100" x2="4000" y2="-350" stroke="#0E5484" stroke-width="8.06"/>
<line x1="7000" y1="-350" x2="4000" y2="-350" stroke="#0E5484" stroke-width="11.52"/>
<line x1="6938.91" y1="-411.09" x2="7061.09" y2="-288.91" stroke="#0E5484" stroke-width="11.52"/>
<line x1="3938.91" y1="-411.09" x2="4061.09" y2="-288.91" stroke="#0E5484" stroke-width="11.52"/>
<text x="5500" y="-450.8" font-size="144" fill="#0E5484" text-anchor="middle" dominant-baseline="central" transform="rotate(0 5500 -450.8)">3000</text>
<line x1="0" y1="6100" x2="0" y2="6600" stroke="#0E5484" stroke-width="8.06"/>
<line x1="7000" y1="6100" x2="7000" y2="6600" stroke="#0E5484" stroke-width="8.06"/>
<line x1="0" y1="6600" x2="7000" y2="6600" stroke="#0E5484" stroke-width="11.52"/>
<line x1="61.09" y1="6661.09" x2="-61.09" y2="6538.91" stroke="#0E5484" stroke-width="11.52"/>
<line x1="7061.09" y1="6661.09" x2="6938.91" y2="6538.91" stroke="#0E5484" stroke-width="11.52"/>
<text x="3500" y="6700.8" font-size="144" fill="#0E5484" text-anchor="middle" dominant-baseline="central" transform="rotate(0 3500 6700.8)">7000</text>
<line x1="7100" y1="6000" x2="7600" y2="6000" stroke="#0E5484" stroke-width="8.06"/>
<line x1="7100" y1="0" x2="7600" y2="0" stroke="#0E5484" stroke-width="8.06"/>
<line x1="7600" y1="6000" x2="7600" y2="0" stroke="#0E5484" stroke-width="11.52"/>
<line x1="7661.09" y1="5938.91" x2="7538.91" y2="6061.09" stroke="#0E5484" stroke-width="11.52"/>
<line x1="7661.09" y1="-61.09" x2="7538.91" y2="61.09" stroke="#0E5484" stroke-width="11.52"/>
<text x="7700.8" y="3000" font-size="144" fill="#0E5484" text-anchor="middle" dominant-baseline="central" transform="rotate(-90 7700.8 3000)">6000</text>
</g>
<g><polygon points="6776,-1097.2 6614,-578.8 6776,-692.2 6938,-578.8" fill="#333333" transform="rotate(0 6776 -773.2)"/><text x="6776" y="-1246.96" font-size="187.2" fill="#333333" text-anchor="middle" dominant-baseline="central">N</text></g>
<g><rect x="-100" y="7204.8" width="1000" height="100.8" fill="#333333"/><rect x="900" y="7204.8" width="1000" height="100.8" fill="none" stroke="#333333" stroke-width="11.52"/><text x="-100" y="7449.6" font-size="144" fill="#333333" text-anchor="start" dominant-baseline="central">0</text><text x="1900" y="7449.6" font-size="144" fill="#333333" text-anchor="middle" dominant-baseline="central">2 m</text></g>
<g><rect x="4652" y="7204.8" width="2448" height="1324.8" fill="none" stroke="#333333" stroke-width="11.52"/><text x="4774.4" y="7370.4" font-size="109.44" fill="#888888" dominant-baseline="central">PROJECT</text><text x="6977.6" y="7370.4" font-size="136.8" fill="#333333" text-anchor="end" dominant-baseline="central">Studio Apartment</text><text x="4774.4" y="7701.6" font-size="109.44" fill="#888888" dominant-baseline="central">DRAWN BY</text><text x="6977.6" y="7701.6" font-size="136.8" fill="#333333" text-anchor="end" dominant-baseline="central">ArchCanvas</text><line x1="4652" y1="7536" x2="7100" y2="7536" stroke="#333333" stroke-width="5.76"/><text x="4774.4" y="8032.8" font-size="109.44" fill="#888888" dominant-baseline="central">DATE</text><text x="6977.6" y="8032.8" font-size="136.8" fill="#333333" text-anchor="end" dominant-baseline="central">2026-06-27</text><line x1="4652" y1="7867.2" x2="7100" y2="7867.2" stroke="#333333" stroke-width="5.76"/><text x="4774.4" y="8364" font-size="109.44" fill="#888888" dominant-baseline="central">SCALE</text><text x="6977.6" y="8364" font-size="136.8" fill="#333333" text-anchor="end" dominant-baseline="central">1:50</text><line x1="4652" y1="8198.4" x2="7100" y2="8198.4" stroke="#333333" stroke-width="5.76"/></g>
</svg>