<svg xmlns="http://www.w3.org/2000/svg" xmlns:inkscape="http://www.inkscape.org/namespaces/inkscape"  viewBox="-1901 -1901 13802 13876.4" font-family="Helvetica, Arial, sans-serif">
<defs><pattern id="poche" patternUnits="userSpaceOnUse" width="133.9" height="133.9" patternTransform="rotate(45)"><rect width="133.9" height="133.9" fill="#e9e4db"/><line x1="0" y1="0" x2="0" y2="133.9" stroke="#b9b1a4" stroke-width="11.54"/></pattern></defs>
<rect x="-1901" y="-1901" width="13802" height="13876.4" fill="#ffffff"/>
<g id="A-FLOR" inkscape:groupmode="layer" inkscape:label="A-FLOR">
<polygon points="0,0 4000,0 4000,5000 0,5000" fill="#fbfaf7"/>
<polygon points="4000,0 10000,0 10000,5000 4000,5000" fill="#fbfaf7"/>
<polygon points="0,5000 4000,5000 4000,8000 0,8000" fill="#fbfaf7"/>
<polygon points="4000,5000 7000,5000 7000,8000 4000,8000" fill="#fbfaf7"/>
<polygon points="7000,5000 10000,5000 10000,8000 7000,8000" fill="#fbfaf7"/>
</g>
<g id="A-FURN" inkscape:groupmode="layer" inkscape:label="A-FURN">
<polygon points="5000,300 6800,300 6800,2400 5000,2400" fill="#f4f2ee" stroke="#a8a29a" stroke-width="16.48"/>
<text x="5900" y="1350" font-size="175.1" fill="#9a948c" text-anchor="middle" dominant-baseline="central">Bed</text>
<polygon points="300,5300 1700,5300 1700,7300 300,7300" fill="#f4f2ee" stroke="#a8a29a" stroke-width="16.48"/>
<text x="1000" y="6300" font-size="175.1" fill="#9a948c" text-anchor="middle" dominant-baseline="central">Bed</text>
</g>
<g id="A-WALL" inkscape:groupmode="layer" inkscape:label="A-WALL">
<path d="M -150,-150 L -150,2250 L 150,2250 L 150,150 L 1000,150 L 1000,-150 Z M 150,3750 L -150,3750 L -150,8150 L 10150,8150 L 10150,3750 L 9850,3750 L 9850,4950 L 5900,4950 L 5900,5050 L 6950,5050 L 6950,6050 L 7050,6050 L 7050,5050 L 9850,5050 L 9850,7850 L 7050,7850 L 7050,6950 L 6950,6950 L 6950,7850 L 150,7850 Z M 3000,-150 L 3000,150 L 3950,150 L 3950,2050 L 4050,2050 L 4050,150 L 6800,150 L 6800,-150 Z M 4050,2950 L 3950,2950 L 3950,5050 L 5100,5050 L 5100,4950 L 4050,4950 Z M 9200,-150 L 9200,150 L 9850,150 L 9850,2250 L 10150,2250 L 10150,-150 Z" fill="url(#poche)" fill-rule="nonzero"/>
<path d="M -150,-150 L -150,2250 L 150,2250 L 150,150 L 1000,150 L 1000,-150 Z M 150,3750 L -150,3750 L -150,8150 L 10150,8150 L 10150,3750 L 9850,3750 L 9850,4950 L 5900,4950 L 5900,5050 L 6950,5050 L 6950,6050 L 7050,6050 L 7050,5050 L 9850,5050 L 9850,7850 L 7050,7850 L 7050,6950 L 6950,6950 L 6950,7850 L 150,7850 Z M 3000,-150 L 3000,150 L 3950,150 L 3950,2050 L 4050,2050 L 4050,150 L 6800,150 L 6800,-150 Z M 4050,2950 L 3950,2950 L 3950,5050 L 5100,5050 L 5100,4950 L 4050,4950 Z M 9200,-150 L 9200,150 L 9850,150 L 9850,2250 L 10150,2250 L 10150,-150 Z" fill="none" stroke="#1b1b1b" stroke-width="28.84" stroke-linejoin="miter"/>
</g>
<g id="A-DOOR" inkscape:groupmode="layer" inkscape:label="A-DOOR">
<polygon points="3921.16,2050 3921.16,2950 4078.84,2950 4078.84,2050" fill="#ffffff"/>
<line x1="4000" y1="2050" x2="3100" y2="2050" stroke="#555555" stroke-width="21.42"/>
<path d="M 3100,2050 A 900 900 0 0 0 4000,2950" fill="none" stroke="#555555" stroke-width="16.48" stroke-dasharray="65.92 49.44"/>
<polygon points="5100,5078.84 5900,5078.84 5900,4921.16 5100,4921.16" fill="#ffffff"/>
<line x1="5100" y1="5000" x2="5100" y2="5800" stroke="#555555" stroke-width="21.42"/>
<path d="M 5100,5800 A 800 800 0 0 0 5900,5000" fill="none" stroke="#555555" stroke-width="16.48" stroke-dasharray="65.92 49.44"/>
<polygon points="6921.16,6050 6921.16,6950 7078.84,6950 7078.84,6050" fill="#ffffff"/>
<line x1="7000" y1="6950" x2="6100" y2="6950" stroke="#555555" stroke-width="21.42"/>
<path d="M 6100,6950 A 900 900 0 0 1 7000,6050" fill="none" stroke="#555555" stroke-width="16.48" stroke-dasharray="65.92 49.44"/>
</g>
<g id="A-GLAZ" inkscape:groupmode="layer" inkscape:label="A-GLAZ">
<polygon points="1000,178.84 3000,178.84 3000,-178.84 1000,-178.84" fill="#ffffff"/>
<line x1="1000" y1="150" x2="3000" y2="150" stroke="#1b1b1b" stroke-width="16.48"/>
<line x1="1000" y1="-150" x2="3000" y2="-150" stroke="#1b1b1b" stroke-width="16.48"/>
<line x1="1000" y1="0" x2="3000" y2="0" stroke="#3a6ea5" stroke-width="16.48"/>
<polygon points="6800,178.84 9200,178.84 9200,-178.84 6800,-178.84" fill="#ffffff"/>
<line x1="6800" y1="150" x2="9200" y2="150" stroke="#1b1b1b" stroke-width="16.48"/>
<line x1="6800" y1="-150" x2="9200" y2="-150" stroke="#1b1b1b" stroke-width="16.48"/>
<line x1="6800" y1="0" x2="9200" y2="0" stroke="#3a6ea5" stroke-width="16.48"/>
<polygon points="178.84,3750 178.84,2250 -178.84,2250 -178.84,3750" fill="#ffffff"/>
<line x1="150" y1="3750" x2="150" y2="2250" stroke="#1b1b1b" stroke-width="16.48"/>
<line x1="-150" y1="3750" x2="-150" y2="2250" stroke="#1b1b1b" stroke-width="16.48"/>
<line x1="0" y1="3750" x2="0" y2="2250" stroke="#3a6ea5" stroke-width="16.48"/>
<polygon points="9821.16,2250 9821.16,3750 10178.84,3750 10178.84,2250" fill="#ffffff"/>
<line x1="9850" y1="2250" x2="9850" y2="3750" stroke="#1b1b1b" stroke-width="16.48"/>
<line x1="10150" y1="2250" x2="10150" y2="3750" stroke="#1b1b1b" stroke-width="16.48"/>
<line x1="10000" y1="2250" x2="10000" y2="3750" stroke="#3a6ea5" stroke-width="16.48"/>
</g>
<g id="A-ANNO-TEXT" inkscape:groupmode="layer" inkscape:label="A-ANNO-TEXT">
<text x="2000" y="2438.2" font-size="309" fill="#222222" text-anchor="middle" dominant-baseline="central" font-weight="600">Kitchen / Living</text>
<text x="2000" y="2778.1" font-size="226.6" fill="#7a7a7a" text-anchor="middle" dominant-baseline="central">20.0 m²</text>
<text x="7000" y="2438.2" font-size="309" fill="#222222" text-anchor="middle" dominant-baseline="central" font-weight="600">Master Bedroom</text>
<text x="7000" y="2778.1" font-size="226.6" fill="#7a7a7a" text-anchor="middle" dominant-baseline="central">30.0 m²</text>
<text x="2000" y="6438.2" font-size="309" fill="#222222" text-anchor="middle" dominant-baseline="central" font-weight="600">Bedroom 2</text>
<text x="2000" y="6778.1" font-size="226.6" fill="#7a7a7a" text-anchor="middle" dominant-baseline="central">12.0 m²</text>
<text x="5500" y="6438.2" font-size="309" fill="#222222" text-anchor="middle" dominant-baseline="central" font-weight="600">Bathroom</text>
<text x="5500" y="6778.1" font-size="226.6" fill="#7a7a7a" text-anchor="middle" dominant-baseline="central">9.0 m²</text>
<text x="8500" y="6438.2" font-size="309" fill="#222222" text-anchor="middle" dominant-baseline="central" font-weight="600">Hall</text>
<text x="8500" y="6778.1" font-size="226.6" fill="#7a7a7a" text-anchor="middle" dominant-baseline="central">9.0 m²</text>
</g>
<g id="A-ANNO-DIMS" inkscape:groupmode="layer" inkscape:label="A-ANNO-DIMS">
<line x1="0" y1="8000" x2="0" y2="8700" stroke="#0E5484" stroke-width="11.54"/>
<line x1="10000" y1="8000" x2="10000" y2="8700" stroke="#0E5484" stroke-width="11.54"/>
<line x1="0" y1="8700" x2="10000" y2="8700" stroke="#0E5484" stroke-width="16.48"/>
<line x1="87.4" y1="8787.4" x2="-87.4" y2="8612.6" stroke="#0E5484" stroke-width="16.48"/>
<line x1="10087.4" y1="8787.4" x2="9912.6" y2="8612.6" stroke="#0E5484" stroke-width="16.48"/>
<text x="5000" y="8844.2" font-size="206" fill="#0E5484" text-anchor="middle" dominant-baseline="central" transform="rotate(0 5000 8844.2)">10000</text>
<line x1="0" y1="0" x2="-700" y2="0" stroke="#0E5484" stroke-width="11.54"/>
<line x1="0" y1="8000" x2="-700" y2="8000" stroke="#0E5484" stroke-width="11.54"/>
<line x1="-700" y1="0" x2="-700" y2="8000" stroke="#0E5484" stroke-width="16.48"/>
<line x1="-787.4" y1="87.4" x2="-612.6" y2="-87.4" stroke="#0E5484" stroke-width="16.48"/>
<line x1="-787.4" y1="8087.4" x2="-612.6" y2="7912.6" stroke="#0E5484" stroke-width="16.48"/>
<text x="-844.2" y="4000" font-size="206" fill="#0E5484" text-anchor="middle" dominant-baseline="central" transform="rotate(90 -844.2 4000)">8000</text>
</g>
<g><polygon points="9686.5,-1576.55 9454.75,-834.95 9686.5,-997.18 9918.25,-834.95" fill="#333333" transform="rotate(90 9686.5 -1113.05)"/><text x="10364.24" y="-1113.05" font-size="267.8" fill="#333333" text-anchor="middle" dominant-baseline="central">N</text></g>
<g><rect x="-150" y="9565.2" width="1000" height="144.2" fill="#333333"/><rect x="850" y="9565.2" width="1000" height="144.2" fill="none" stroke="#333333" stroke-width="16.48"/><text x="-150" y="9915.4" font-size="206" fill="#333333" text-anchor="start" dominant-baseline="central">0</text><text x="1850" y="9915.4" font-size="206" fill="#333333" text-anchor="middle" dominant-baseline="central">2 m</text></g>
<g><rect x="6648" y="9565.2" width="3502" height="1895.2" fill="none" stroke="#333333" stroke-width="16.48"/><text x="6823.1" y="9802.1" font-size="156.56" fill="#888888" dominant-baseline="central">PROJECT</text><text x="9974.9" y="9802.1" font-size="195.7" fill="#333333" text-anchor="end" dominant-baseline="central">Two-Bedroom Flat</text><text x="6823.1" y="10275.9" font-size="156.56" fill="#888888" dominant-baseline="central">DRAWN BY</text><text x="9974.9" y="10275.9" font-size="195.7" fill="#333333" text-anchor="end" dominant-baseline="central">ArchCanvas</text><line x1="6648" y1="10039" x2="10150" y2="10039" stroke="#333333" stroke-width="8.24"/><text x="6823.1" y="10749.7" font-size="156.56" fill="#888888" dominant-baseline="central">DATE</text><text x="9974.9" y="10749.7" font-size="195.7" fill="#333333" text-anchor="end" dominant-baseline="central">2026-06-25</text><line x1="6648" y1="10512.8" x2="10150" y2="10512.8" stroke="#333333" stroke-width="8.24"/><text x="6823.1" y="11223.5" font-size="156.56" fill="#888888" dominant-baseline="central">SCALE</text><text x="9974.9" y="11223.5" font-size="195.7" fill="#333333" text-anchor="end" dominant-baseline="central">1:100</text><line x1="6648" y1="10986.6" x2="10150" y2="10986.6" stroke="#333333" stroke-width="8.24"/></g>
</svg>