<svg xmlns="http://www.w3.org/2000/svg" xmlns:inkscape="http://www.inkscape.org/namespaces/inkscape"  viewBox="-2571 -2571 15142 14864.4" font-family="Helvetica, Arial, sans-serif">
<defs><pattern id="poche" patternUnits="userSpaceOnUse" width="146.9" height="146.9" patternTransform="rotate(45)"><rect width="146.9" height="146.9" fill="#e9e4db"/><line x1="0" y1="0" x2="0" y2="146.9" stroke="#b9b1a4" stroke-width="12.66"/></pattern></defs>
<rect x="-2571" y="-2571" width="15142" height="14864.4" fill="#ffffff"/>
<g id="A-FLOR" inkscape:groupmode="layer" inkscape:label="A-FLOR">
<polygon points="0,0 4000,0 4000,5000 0,5000" fill="#fbfaf7"/>
<polygon points="4000,0 10000,0 10000,5000 4000,5000" fill="#fbfaf7"/>
<polygon points="0,5000 4000,5000 4000,8000 0,8000" fill="#fbfaf7"/>
<polygon points="4000,5000 7000,5000 7000,8000 4000,8000" fill="#fbfaf7"/>
<polygon points="7000,5000 10000,5000 10000,8000 7000,8000" fill="#fbfaf7"/>
</g>
<g id="A-FURN" inkscape:groupmode="layer" inkscape:label="A-FURN">
<polygon points="5000,300 6800,300 6800,2400 5000,2400" fill="#f4f2ee" stroke="#a8a29a" stroke-width="18.08"/>
<polygon points="5000,300 6800,300 6800,426 5000,426" fill="#f4f2ee" stroke="#a8a29a" stroke-width="18.08"/>
<polygon points="5743.1,489 5782.48,496.83 5815.86,519.14 5838.17,552.52 5846,591.9 5846,680.1 5838.17,719.48 5815.86,752.86 5782.48,775.17 5743.1,783 5264.9,783 5225.52,775.17 5192.14,752.86 5169.83,719.48 5162,680.1 5162,591.9 5169.83,552.52 5192.14,519.14 5225.52,496.83 5264.9,489" fill="#ffffff" stroke="#a8a29a" stroke-width="18.08"/>
<polygon points="6535.1,489 6574.48,496.83 6607.86,519.14 6630.17,552.52 6638,591.9 6638,680.1 6630.17,719.48 6607.86,752.86 6574.48,775.17 6535.1,783 6056.9,783 6017.52,775.17 5984.14,752.86 5961.83,719.48 5954,680.1 5954,591.9 5961.83,552.52 5984.14,519.14 6017.52,496.83 6056.9,489" fill="#ffffff" stroke="#a8a29a" stroke-width="18.08"/>
<line x1="5000" y1="972" x2="6800" y2="972" stroke="#a8a29a" stroke-width="9.94"/>
<line x1="5000" y1="1056" x2="6800" y2="1056" stroke="#a8a29a" stroke-width="9.94"/>
<line x1="6800" y1="972" x2="6404" y2="1056" stroke="#a8a29a" stroke-width="9.94"/>
<polygon points="1700,7800 300,7800 300,5800 1700,5800" fill="#f4f2ee" stroke="#a8a29a" stroke-width="18.08"/>
<polygon points="1700,7800 300,7800 300,7680 1700,7680" fill="#f4f2ee" stroke="#a8a29a" stroke-width="18.08"/>
<polygon points="1140,7620 1102.5,7612.54 1070.7,7591.3 1049.46,7559.5 1042,7522 1042,7438 1049.46,7400.5 1070.7,7368.7 1102.5,7347.46 1140,7340 1476,7340 1513.5,7347.46 1545.3,7368.7 1566.54,7400.5 1574,7438 1574,7522 1566.54,7559.5 1545.3,7591.3 1513.5,7612.54 1476,7620" fill="#ffffff" stroke="#a8a29a" stroke-width="18.08"/>
<polygon points="524,7620 486.5,7612.54 454.7,7591.3 433.46,7559.5 426,7522 426,7438 433.46,7400.5 454.7,7368.7 486.5,7347.46 524,7340 860,7340 897.5,7347.46 929.3,7368.7 950.54,7400.5 958,7438 958,7522 950.54,7559.5 929.3,7591.3 897.5,7612.54 860,7620" fill="#ffffff" stroke="#a8a29a" stroke-width="18.08"/>
<line x1="1700" y1="7160" x2="300" y2="7160" stroke="#a8a29a" stroke-width="9.94"/>
<line x1="1700" y1="7080" x2="300" y2="7080" stroke="#a8a29a" stroke-width="9.94"/>
<line x1="300" y1="7160" x2="608" y2="7080" stroke="#a8a29a" stroke-width="9.94"/>
<polygon points="8650,150 9850,150 9850,750 8650,750" fill="#f4f2ee" stroke="#a8a29a" stroke-width="18.08"/>
<line x1="8710" y1="450" x2="9790" y2="450" stroke="#a8a29a" stroke-width="9.94"/>
<path d="M 8710,450 A 180 180 0 0 0 9070,450" fill="none" stroke="#a8a29a" stroke-width="9.94"/>
<path d="M 9070,450 A 180 180 0 0 0 9430,450" fill="none" stroke="#a8a29a" stroke-width="9.94"/>
<path d="M 9430,450 A 180 180 0 0 0 9790,450" fill="none" stroke="#a8a29a" stroke-width="9.94"/>
<line x1="9250" y1="150" x2="9250" y2="750" stroke="#a8a29a" stroke-width="9.94"/>
<polygon points="3950,5600 3950,7400 3350,7400 3350,5600" fill="#f4f2ee" stroke="#a8a29a" stroke-width="18.08"/>
<line x1="3650" y1="5690" x2="3650" y2="7310" stroke="#a8a29a" stroke-width="9.94"/>
<path d="M 3650,5690 A 202.5 202.5 0 0 0 3650,6095" fill="none" stroke="#a8a29a" stroke-width="9.94"/>
<path d="M 3650,6095 A 202.5 202.5 0 0 0 3650,6500" fill="none" stroke="#a8a29a" stroke-width="9.94"/>
<path d="M 3650,6500 A 202.5 202.5 0 0 0 3650,6905" fill="none" stroke="#a8a29a" stroke-width="9.94"/>
<path d="M 3650,6905 A 202.5 202.5 0 0 0 3650,7310" fill="none" stroke="#a8a29a" stroke-width="9.94"/>
<line x1="3950" y1="6500" x2="3350" y2="6500" stroke="#a8a29a" stroke-width="9.94"/>
<polygon points="150,800 150,200 850,200 850,800" fill="#f4f2ee" stroke="#a8a29a" stroke-width="18.08"/>
<polygon points="180,770 180,230 820,230 820,770" fill="none" stroke="#a8a29a" stroke-width="9.94"/>
<line x1="402" y1="800" x2="402" y2="200" stroke="#a8a29a" stroke-width="18.08"/>
<line x1="234" y1="284" x2="346" y2="284" stroke="#a8a29a" stroke-width="18.08"/>
<polygon points="150,1500 150,900 750,900 750,1500" fill="#f4f2ee" stroke="#a8a29a" stroke-width="18.08"/>
<circle cx="330" cy="1320" r="96" fill="none" stroke="#a8a29a" stroke-width="18.08"/>
<circle cx="330" cy="1320" r="57.6" fill="none" stroke="#a8a29a" stroke-width="9.94"/>
<circle cx="570" cy="1320" r="96" fill="none" stroke="#a8a29a" stroke-width="18.08"/>
<circle cx="570" cy="1320" r="57.6" fill="none" stroke="#a8a29a" stroke-width="9.94"/>
<circle cx="330" cy="1080" r="96" fill="none" stroke="#a8a29a" stroke-width="18.08"/>
<circle cx="330" cy="1080" r="57.6" fill="none" stroke="#a8a29a" stroke-width="9.94"/>
<circle cx="570" cy="1080" r="96" fill="none" stroke="#a8a29a" stroke-width="18.08"/>
<circle cx="570" cy="1080" r="57.6" fill="none" stroke="#a8a29a" stroke-width="9.94"/>
<line x1="702" y1="1500" x2="702" y2="900" stroke="#a8a29a" stroke-width="9.94"/>
<polygon points="150,2300 150,1500 750,1500 750,2300" fill="#f4f2ee" stroke="#a8a29a" stroke-width="18.08"/>
<polygon points="306,1963.92 307.67,1955.53 312.42,1948.42 319.53,1943.67 327.92,1942 644.08,1942 652.47,1943.67 659.58,1948.42 664.33,1955.53 666,1963.92 666,2194.08 664.33,2202.47 659.58,2209.58 652.47,2214.33 644.08,2216 327.92,2216 319.53,2214.33 312.42,2209.58 307.67,2202.47 306,2194.08" fill="#ffffff" stroke="#a8a29a" stroke-width="18.08"/>
<circle cx="486" cy="2079" r="32.88" fill="#f4f2ee" stroke="#a8a29a" stroke-width="9.94"/>
<polygon points="306,1605.92 307.67,1597.53 312.42,1590.42 319.53,1585.67 327.92,1584 644.08,1584 652.47,1585.67 659.58,1590.42 664.33,1597.53 666,1605.92 666,1836.08 664.33,1844.47 659.58,1851.58 652.47,1856.33 644.08,1858 327.92,1858 319.53,1856.33 312.42,1851.58 307.67,1844.47 306,1836.08" fill="#ffffff" stroke="#a8a29a" stroke-width="18.08"/>
<circle cx="486" cy="1721" r="32.88" fill="#f4f2ee" stroke="#a8a29a" stroke-width="9.94"/>
<circle cx="186" cy="1900" r="18" fill="#a8a29a" stroke="#a8a29a" stroke-width="18.08"/>
<line x1="186" y1="1900" x2="318" y2="1900" stroke="#a8a29a" stroke-width="9.94"/>
<polygon points="3740,600 3762.96,604.57 3782.43,617.57 3795.43,637.04 3800,660 3800,1140 3795.43,1162.96 3782.43,1182.43 3762.96,1195.43 3740,1200 2960,1200 2937.04,1195.43 2917.57,1182.43 2904.57,1162.96 2900,1140 2900,660 2904.57,637.04 2917.57,617.57 2937.04,604.57 2960,600" fill="#f4f2ee" stroke="#a8a29a" stroke-width="18.08"/>
<polygon points="2900,660 3008,660 3008,1200 2900,1200" fill="#f4f2ee" stroke="#a8a29a" stroke-width="18.08"/>
<polygon points="3692,660 3800,660 3800,1200 3692,1200" fill="#f4f2ee" stroke="#a8a29a" stroke-width="18.08"/>
<line x1="2900" y1="708" x2="3800" y2="708" stroke="#a8a29a" stroke-width="9.94"/>
<line x1="3236" y1="708" x2="3236" y2="1140" stroke="#a8a29a" stroke-width="9.94"/>
<line x1="3464" y1="708" x2="3464" y2="1140" stroke="#a8a29a" stroke-width="9.94"/>
<line x1="3008" y1="1140" x2="3692" y2="1140" stroke="#a8a29a" stroke-width="9.94"/>
<polygon points="200,3200 900,3200 900,3700 200,3700" fill="#f4f2ee" stroke="#a8a29a" stroke-width="18.08"/>
<polygon points="240,3240 860,3240 860,3660 240,3660" fill="none" stroke="#a8a29a" stroke-width="9.94"/>
<polygon points="4050,7450 4050,6550 4950,6550 4950,7450" fill="#ffffff" stroke="#a8a29a" stroke-width="18.08"/>
<polygon points="4122,7378 4122,6622 4878,6622 4878,7378" fill="#ffffff" stroke="#a8a29a" stroke-width="9.94"/>
<line x1="4122" y1="7378" x2="4878" y2="6622" stroke="#a8a29a" stroke-width="9.94"/>
<line x1="4122" y1="6622" x2="4878" y2="7378" stroke="#a8a29a" stroke-width="9.94"/>
<circle cx="4500" cy="7000" r="45" fill="none" stroke="#a8a29a" stroke-width="18.08"/>
<circle cx="4500" cy="7000" r="16.2" fill="#a8a29a" stroke="#a8a29a" stroke-width="9.94"/>
<polygon points="5700,7850 5300,7850 5300,7696 5700,7696" fill="#f4f2ee" stroke="#a8a29a" stroke-width="18.08"/>
<line x1="5676" y1="7803.8" x2="5324" y2="7803.8" stroke="#a8a29a" stroke-width="9.94"/>
<polygon points="5340,7412.08 5345.45,7347.08 5361.44,7286.5 5386.86,7234.48 5420,7194.57 5458.59,7169.48 5500,7160.92 5541.41,7169.48 5580,7194.57 5613.14,7234.48 5638.56,7286.5 5654.55,7347.08 5660,7412.08 5654.55,7477.08 5638.56,7537.66 5613.14,7589.68 5580,7629.59 5541.41,7654.68 5500,7663.24 5458.59,7654.68 5420,7629.59 5386.86,7589.68 5361.44,7537.66 5345.45,7477.08" fill="#ffffff" stroke="#a8a29a" stroke-width="18.08"/>
<polygon points="5375.2,7412.08 5379.45,7361.38 5391.92,7314.13 5411.75,7273.55 5437.6,7242.42 5467.7,7222.85 5500,7216.18 5532.3,7222.85 5562.4,7242.42 5588.25,7273.55 5608.08,7314.13 5620.55,7361.38 5624.8,7412.08 5620.55,7462.78 5608.08,7510.03 5588.25,7550.61 5562.4,7581.74 5532.3,7601.31 5500,7607.98 5467.7,7601.31 5437.6,7581.74 5411.75,7550.61 5391.92,7510.03 5379.45,7462.78" fill="#ffffff" stroke="#a8a29a" stroke-width="9.94"/>
<circle cx="5500" cy="7773" r="20" fill="#a8a29a" stroke="#a8a29a" stroke-width="18.08"/>
<polygon points="6900,7850 6300,7850 6300,7350 6900,7350" fill="#f4f2ee" stroke="#a8a29a" stroke-width="18.08"/>
<polygon points="6396,7570 6402.95,7528.59 6423.33,7490 6455.75,7456.86 6498,7431.44 6547.2,7415.45 6600,7410 6652.8,7415.45 6702,7431.44 6744.25,7456.86 6776.67,7490 6797.05,7528.59 6804,7570 6797.05,7611.41 6776.67,7650 6744.25,7683.14 6702,7708.56 6652.8,7724.55 6600,7730 6547.2,7724.55 6498,7708.56 6455.75,7683.14 6423.33,7650 6402.95,7611.41" fill="#ffffff" stroke="#a8a29a" stroke-width="18.08"/>
<polygon points="6436.8,7570 6442.36,7536.87 6458.66,7506 6484.6,7479.49 6518.4,7459.15 6557.76,7446.36 6600,7442 6642.24,7446.36 6681.6,7459.15 6715.4,7479.49 6741.34,7506 6757.64,7536.87 6763.2,7570 6757.64,7603.13 6741.34,7634 6715.4,7660.51 6681.6,7680.85 6642.24,7693.64 6600,7698 6557.76,7693.64 6518.4,7680.85 6484.6,7660.51 6458.66,7634 6442.36,7603.13" fill="#ffffff" stroke="#a8a29a" stroke-width="9.94"/>
<polygon points="6630,7835 6570,7835 6570,7785 6630,7785" fill="#f4f2ee" stroke="#a8a29a" stroke-width="18.08"/>
<line x1="6600" y1="7785" x2="6600" y2="7634" stroke="#a8a29a" stroke-width="9.94"/>
</g>
<g id="A-WALL" inkscape:groupmode="layer" inkscape:label="A-WALL">
<path d="M -150,-150 L -150,2250 L 150,2250 L 150,150 L 1000,150 L 1000,-150 Z M -150,3750 L -150,8150 L 1300,8150 L 1300,7850 L 150,7850 L 150,5050 L 1550,5050 L 1550,4950 L 150,4950 L 150,3750 Z M 2450,4950 L 2450,5050 L 3950,5050 L 3950,7850 L 2700,7850 L 2700,8150 L 8000,8150 L 8000,7850 L 7050,7850 L 7050,6950 L 6950,6950 L 6950,7850 L 4050,7850 L 4050,5050 L 5100,5050 L 5100,4950 L 4050,4950 L 4050,2950 L 3950,2950 L 3950,4950 Z M 3000,-150 L 3000,150 L 3950,150 L 3950,2050 L 4050,2050 L 4050,150 L 6800,150 L 6800,-150 Z M 5900,4950 L 5900,5050 L 6950,5050 L 6950,6050 L 7050,6050 L 7050,5050 L 9850,5050 L 9850,7850 L 9000,7850 L 9000,8150 L 10150,8150 L 10150,3750 L 9850,3750 L 9850,4950 Z M 9200,-150 L 9200,150 L 9850,150 L 9850,2250 L 10150,2250 L 10150,-150 Z" fill="url(#poche)" fill-rule="nonzero"/>
<path d="M -150,-150 L -150,2250 L 150,2250 L 150,150 L 1000,150 L 1000,-150 Z M -150,3750 L -150,8150 L 1300,8150 L 1300,7850 L 150,7850 L 150,5050 L 1550,5050 L 1550,4950 L 150,4950 L 150,3750 Z M 2450,4950 L 2450,5050 L 3950,5050 L 3950,7850 L 2700,7850 L 2700,8150 L 8000,8150 L 8000,7850 L 7050,7850 L 7050,6950 L 6950,6950 L 6950,7850 L 4050,7850 L 4050,5050 L 5100,5050 L 5100,4950 L 4050,4950 L 4050,2950 L 3950,2950 L 3950,4950 Z M 3000,-150 L 3000,150 L 3950,150 L 3950,2050 L 4050,2050 L 4050,150 L 6800,150 L 6800,-150 Z M 5900,4950 L 5900,5050 L 6950,5050 L 6950,6050 L 7050,6050 L 7050,5050 L 9850,5050 L 9850,7850 L 9000,7850 L 9000,8150 L 10150,8150 L 10150,3750 L 9850,3750 L 9850,4950 Z M 9200,-150 L 9200,150 L 9850,150 L 9850,2250 L 10150,2250 L 10150,-150 Z" fill="none" stroke="#1b1b1b" stroke-width="31.64" stroke-linejoin="miter" stroke-miterlimit="4"/>
</g>
<g id="A-DOOR" inkscape:groupmode="layer" inkscape:label="A-DOOR">
<polygon points="9000,7850 8000,7850 8000,8150 9000,8150" fill="none"/>
<line x1="9000" y1="8000" x2="9000" y2="7000" stroke="#555555" stroke-width="23.5"/>
<path d="M 9000,7000 A 1000 1000 0 0 0 8000,8000" fill="none" stroke="#555555" stroke-width="18.08" stroke-dasharray="72.32 54.24"/>
<polygon points="3950,2050 3950,2950 4050,2950 4050,2050" fill="none"/>
<line x1="4000" y1="2050" x2="3100" y2="2050" stroke="#555555" stroke-width="23.5"/>
<path d="M 3100,2050 A 900 900 0 0 0 4000,2950" fill="none" stroke="#555555" stroke-width="18.08" stroke-dasharray="72.32 54.24"/>
<polygon points="1550,5050 2450,5050 2450,4950 1550,4950" fill="none"/>
<line x1="2450" y1="5000" x2="2450" y2="5900" stroke="#555555" stroke-width="23.5"/>
<path d="M 2450,5900 A 900 900 0 0 1 1550,5000" fill="none" stroke="#555555" stroke-width="18.08" stroke-dasharray="72.32 54.24"/>
<polygon points="5100,5050 5900,5050 5900,4950 5100,4950" fill="none"/>
<line x1="5100" y1="5000" x2="5100" y2="5800" stroke="#555555" stroke-width="23.5"/>
<path d="M 5100,5800 A 800 800 0 0 0 5900,5000" fill="none" stroke="#555555" stroke-width="18.08" stroke-dasharray="72.32 54.24"/>
<polygon points="6950,6050 6950,6950 7050,6950 7050,6050" fill="none"/>
<line x1="7000" y1="6950" x2="6100" y2="6950" stroke="#555555" stroke-width="23.5"/>
<path d="M 6100,6950 A 900 900 0 0 1 7000,6050" fill="none" stroke="#555555" stroke-width="18.08" stroke-dasharray="72.32 54.24"/>
</g>
<g id="A-GLAZ" inkscape:groupmode="layer" inkscape:label="A-GLAZ">
<polygon points="1000,181.64 3000,181.64 3000,-181.64 1000,-181.64" fill="#ffffff"/>
<line x1="1000" y1="150" x2="3000" y2="150" stroke="#1b1b1b" stroke-width="18.08"/>
<line x1="1000" y1="-150" x2="3000" y2="-150" stroke="#1b1b1b" stroke-width="18.08"/>
<line x1="1000" y1="0" x2="3000" y2="0" stroke="#3a6ea5" stroke-width="18.08"/>
<polygon points="6800,181.64 9200,181.64 9200,-181.64 6800,-181.64" fill="#ffffff"/>
<line x1="6800" y1="150" x2="9200" y2="150" stroke="#1b1b1b" stroke-width="18.08"/>
<line x1="6800" y1="-150" x2="9200" y2="-150" stroke="#1b1b1b" stroke-width="18.08"/>
<line x1="6800" y1="0" x2="9200" y2="0" stroke="#3a6ea5" stroke-width="18.08"/>
<polygon points="181.64,3750 181.64,2250 -181.64,2250 -181.64,3750" fill="#ffffff"/>
<line x1="150" y1="3750" x2="150" y2="2250" stroke="#1b1b1b" stroke-width="18.08"/>
<line x1="-150" y1="3750" x2="-150" y2="2250" stroke="#1b1b1b" stroke-width="18.08"/>
<line x1="0" y1="3750" x2="0" y2="2250" stroke="#3a6ea5" stroke-width="18.08"/>
<polygon points="9818.36,2250 9818.36,3750 10181.64,3750 10181.64,2250" fill="#ffffff"/>
<line x1="9850" y1="2250" x2="9850" y2="3750" stroke="#1b1b1b" stroke-width="18.08"/>
<line x1="10150" y1="2250" x2="10150" y2="3750" stroke="#1b1b1b" stroke-width="18.08"/>
<line x1="10000" y1="2250" x2="10000" y2="3750" stroke="#3a6ea5" stroke-width="18.08"/>
<polygon points="2700,7818.36 1300,7818.36 1300,8181.64 2700,8181.64" fill="#ffffff"/>
<line x1="2700" y1="7850" x2="1300" y2="7850" stroke="#1b1b1b" stroke-width="18.08"/>
<line x1="2700" y1="8150" x2="1300" y2="8150" stroke="#1b1b1b" stroke-width="18.08"/>
<line x1="2700" y1="8000" x2="1300" y2="8000" stroke="#3a6ea5" stroke-width="18.08"/>
</g>
<g id="A-ANNO-TEXT" inkscape:groupmode="layer" inkscape:label="A-ANNO-TEXT">
<text x="2000" y="3932.2" font-size="339" fill="#222222" text-anchor="middle" dominant-baseline="central" font-weight="600">Kitchen / Living</text>
<text x="2000" y="4305.1" font-size="248.6" fill="#7a7a7a" text-anchor="middle" dominant-baseline="central">20.0 m²</text>
<text x="7000" y="3182.2" font-size="339" fill="#222222" text-anchor="middle" dominant-baseline="central" font-weight="600">Master Bedroom</text>
<text x="7000" y="3555.1" font-size="248.6" fill="#7a7a7a" text-anchor="middle" dominant-baseline="central">30.0 m²</text>
<text x="2600" y="6432.2" font-size="339" fill="#222222" text-anchor="middle" dominant-baseline="central" font-weight="600">Bedroom 2</text>
<text x="2600" y="6805.1" font-size="248.6" fill="#7a7a7a" text-anchor="middle" dominant-baseline="central">12.0 m²</text>
<text x="5050" y="5982.2" font-size="339" fill="#222222" text-anchor="middle" dominant-baseline="central" font-weight="600">Bathroom</text>
<text x="5050" y="6355.1" font-size="248.6" fill="#7a7a7a" text-anchor="middle" dominant-baseline="central">9.0 m²</text>
<text x="8500" y="6432.2" font-size="339" fill="#222222" text-anchor="middle" dominant-baseline="central" font-weight="600">Hall</text>
<text x="8500" y="6805.1" font-size="248.6" fill="#7a7a7a" text-anchor="middle" dominant-baseline="central">9.0 m²</text>
</g>
<g id="A-ANNO-DIMS" inkscape:groupmode="layer" inkscape:label="A-ANNO-DIMS">
<line x1="-150" y1="8000" x2="-150" y2="8700" stroke="#0E5484" stroke-width="12.66"/>
<line x1="10150" y1="8000" x2="10150" y2="8700" stroke="#0E5484" stroke-width="12.66"/>
<line x1="-150" y1="8700" x2="10150" y2="8700" stroke="#0E5484" stroke-width="18.08"/>
<line x1="-54.12" y1="8795.88" x2="-245.88" y2="8604.12" stroke="#0E5484" stroke-width="18.08"/>
<line x1="10245.88" y1="8795.88" x2="10054.12" y2="8604.12" stroke="#0E5484" stroke-width="18.08"/>
<text x="5000" y="8858.2" font-size="226" fill="#0E5484" text-anchor="middle" dominant-baseline="central" transform="rotate(0 5000 8858.2)">10300</text>
<line x1="0" y1="-150" x2="-700" y2="-150" stroke="#0E5484" stroke-width="12.66"/>
<line x1="0" y1="8150" x2="-700" y2="8150" stroke="#0E5484" stroke-width="12.66"/>
<line x1="-700" y1="-150" x2="-700" y2="8150" stroke="#0E5484" stroke-width="18.08"/>
<line x1="-795.88" y1="-54.12" x2="-604.12" y2="-245.88" stroke="#0E5484" stroke-width="18.08"/>
<line x1="-795.88" y1="8245.88" x2="-604.12" y2="8054.12" stroke="#0E5484" stroke-width="18.08"/>
<text x="-858.2" y="4000" font-size="226" fill="#0E5484" text-anchor="middle" dominant-baseline="central" transform="rotate(90 -858.2 4000)">8300</text>
</g>
<g id="A-ROOF" inkscape:groupmode="layer" inkscape:label="A-ROOF">
<polygon points="-650,-650 10650,-650 10650,8650 -650,8650" fill="none" stroke="#888888" stroke-width="18.08" stroke-dasharray="108.48 72.32"/>
</g>
<g><polygon points="10141.5,-2215.05 9887.25,-1401.45 10141.5,-1579.43 10395.75,-1401.45" fill="#333333" transform="rotate(90 10141.5 -1706.55)"/><text x="10885.04" y="-1706.55" font-size="293.8" fill="#333333" text-anchor="middle" dominant-baseline="central">N</text></g>
<g><rect x="-650" y="9649.2" width="1000" height="158.2" fill="#333333"/><rect x="350" y="9649.2" width="1000" height="158.2" fill="none" stroke="#333333" stroke-width="18.08"/><text x="-650" y="10033.4" font-size="226" fill="#333333" text-anchor="start" dominant-baseline="central">0</text><text x="1350" y="10033.4" font-size="226" fill="#333333" text-anchor="middle" dominant-baseline="central">2 m</text></g>
<g><rect x="6808" y="9649.2" width="3842" height="2079.2" fill="none" stroke="#333333" stroke-width="18.08"/><text x="7000.1" y="9909.1" font-size="171.76" fill="#888888" dominant-baseline="central">PROJECT</text><text x="10457.9" y="9909.1" font-size="214.7" fill="#333333" text-anchor="end" dominant-baseline="central">Two-Bedroom Flat</text><text x="7000.1" y="10428.9" font-size="171.76" fill="#888888" dominant-baseline="central">DRAWN BY</text><text x="10457.9" y="10428.9" font-size="214.7" fill="#333333" text-anchor="end" dominant-baseline="central">ArchCanvas</text><line x1="6808" y1="10169" x2="10650" y2="10169" stroke="#333333" stroke-width="9.04"/><text x="7000.1" y="10948.7" font-size="171.76" fill="#888888" dominant-baseline="central">DATE</text><text x="10457.9" y="10948.7" font-size="214.7" fill="#333333" text-anchor="end" dominant-baseline="central">2026-06-25</text><line x1="6808" y1="10688.8" x2="10650" y2="10688.8" stroke="#333333" stroke-width="9.04"/><text x="7000.1" y="11468.5" font-size="171.76" fill="#888888" dominant-baseline="central">SCALE</text><text x="10457.9" y="11468.5" font-size="214.7" fill="#333333" text-anchor="end" dominant-baseline="central">1:100</text><line x1="6808" y1="11208.6" x2="10650" y2="11208.6" stroke="#333333" stroke-width="9.04"/></g>
</svg>