<svg xmlns="http://www.w3.org/2000/svg" width="256" height="256" viewBox="0 0 256 256" fill="none"><rect width="256" height="256" rx="56" fill="#0f1115"/><path transform="translate(21.291 22.438) scale(0.20844)" d="M509.6 125.5C509.2 126.4 507.3 129.5 505.6 132.4 503.9 135.3 501.6 139.4 500.5 141.5 499.4 143.6 497.3 147.4 495.9 149.8 494.4 152.3 489.6 160.8 485.2 168.8 480.9 176.8 475 187.5 472 192.8 466.6 202.2 458.4 217.3 448.8 235.2 446 240.4 439.1 252.8 433.5 262.8 427.9 272.6 419.3 288 414.4 297 409.5 305.9 401.3 320.5 396.2 329.5 374.1 369 349.5 415.7 349.5 418.4 349.5 419.8 349.7 420 350.8 420 351.5 420 352.2 420.4 352.4 420.8 352.5 421.2 350.8 425.4 348.1 430.6 345.6 435.6 333.6 460 321.5 484.8 309.2 509.5 287.4 553.5 272.9 582.6 253.2 622.1 246.5 636 246.5 637.2L246.5 639L251.2 639C255.2 639 256 639.1 256 639.8 256 641 249.1 657.5 245.7 664.1 244.7 666.1 243.4 669.1 242.7 670.8 242.1 672.4 240.7 675.8 239.5 678.2 238.4 680.7 236.7 684.6 235.7 686.9 234.8 689.2 233 693 231.8 695.4 230.6 697.8 228.6 702.2 227.2 705.2 226 708.2 222.2 716.6 219 723.8 215.8 730.9 212.2 739 211 741.8 209.9 744.5 207.8 749 206.5 751.6 205.1 754.3 203.3 758.2 202.5 760.4 201.7 762.5 199.8 766.8 198.2 770 196.8 773.1 192 783.9 187.6 793.8L179.7 811.8L173.9 811.9L168 812L168 851.9L168 891.6L186.9 891.4C197.2 891.1 208.4 891 211.8 891L217.8 891L220.4 885.6C221.8 882.6 223.9 878.3 225 875.9L227 871.5L271.8 871.6L316.7 871.8L318.6 876.5C319.7 879.1 321.6 883.5 322.9 886.4L325.2 891.5L347.6 891.5L370 891.5L370 770.1L370 648.7L375.7 634C380.2 622.1 384.2 612.5 388.4 602.6 388.5 602.2 389.1 601.9 389.7 601.8 390.2 601.6 398.8 601.5 408.7 601.3 424.9 601.1 426.6 601 427.5 600.2 428.1 599.8 428.5 599 428.5 598.4 428.5 597.9 428.8 597.5 429.2 597.5 430.6 597.5 431 596.1 431.3 589.8L431.7 583.5L436.1 583.5L440.5 583.5L440.5 518.5L440.5 453.5L442.4 453.5C445.5 453.5 459.2 455.8 466.2 457.4 489.9 462.9 514 477.9 531.9 498.1 541.9 509.3 552.2 526.8 557.8 541.9 563.4 556.8 565.5 567.1 566.5 584.8 567.1 594.6 567.6 596.8 569.2 597.3 570 597.5 570.6 598.1 570.9 599.1 571.2 600.5 571.6 600.8 573.2 601.1 574.4 601.3 588.8 601.5 605.4 601.5L635.5 601.5L637 605.3C637.8 607.5 641.9 617.9 646 628.5L653.6 647.8L653.9 769.4L654.2 891L678.2 891L702.4 891L706.9 881.5L711.5 872L754.8 872L798.1 872L802.6 881.5L807.2 891L831.9 891L856.5 891L856.5 851.6L856.5 812.1L851 811.8C848 811.6 845.2 811.4 844.9 811.2 844.1 811 840.1 802.8 837.5 796.2 836.7 794.2 835 790.5 833.8 788.1 832.6 785.7 830.4 780.6 828.8 776.8 827.2 773 825 768 823.9 765.8 822.8 763.5 821 759.7 820 757.2 819 754.8 817 750.1 815.6 747 814.1 743.8 812.2 739.5 811.2 737.2 810.2 735 808 730.2 806.2 726.5 804.5 722.8 802.4 718 801.6 716 800.8 714 798.8 709.5 797.2 706.2 795.7 703 792.6 696 790.2 690.8 788 685.5 782.1 672.2 777.1 661.1 772.1 650 768 640.6 768 640.2 768 639.7 768.7 639.5 770.7 639.5 772.1 639.5 774.1 639.3 775.2 639.2 778.4 638.6 778 637.3 768.9 618.8 748.1 576.1 725.4 530.3 710 499.5 683.6 446.9 672 422.6 672 420.1 672 419.8 672.5 419.5 673 419.5 673.8 419.5 674 419.1 674 417.8 674 414.9 662.2 391.8 647.4 365.5 643.2 358.2 635.4 344 630 334 619.1 313.8 612.7 302.2 604.1 287.2 595.5 272.2 587.6 258.1 583.5 250.2 581.5 246.4 575.3 235.1 569.8 225.2 564.2 215.3 557.6 203.5 555.1 199 552.6 194.4 549.5 188.7 548 186.2 546.6 183.8 542.4 176.1 538.6 169.2 534.9 162.3 530.2 153.9 528.2 150.5 526.3 147 522.2 139.7 519.2 134.1 513.8 124.1 513.8 124 512.1 124 510.8 124 510.3 124.3 509.6 125.5ZM502.4 215.3C497.9 222.3 494 229.1 489.2 238.3 488.1 240.6 486.7 243 486.1 243.8 485.6 244.6 483.8 248.1 482.1 251.6 480.5 255.1 478.6 258.7 477.9 259.6 477.2 260.5 475 264.4 473 268.2 471 272.1 468 277.8 466.2 281 464.6 284.1 460.2 292.1 456.6 298.8 453.1 305.3 449 313.1 447.5 316 446.1 318.9 443.9 323 442.6 325.2 441.4 327.4 437.6 334.5 434.2 341 431 347.4 424 360.6 418.8 370.2 413.7 379.8 403.4 399.2 396 413.1L382.6 438.6L382.3 445.4C382.1 449.2 381.9 454.9 381.7 458.1L381.4 464L377.2 464L373 464L373 517.2L373 570.5L400.2 570.5L427.4 570.5L427.7 574.6C427.9 576.9 428.1 579.8 428.1 581.2 428.4 590.3 428.9 565.4 429 537.8 429 519.6 429.2 492.8 429.4 478L429.7 451.4L441.5 451.6C457.5 452 463.7 453.2 479.3 458.9 489.1 462.5 491.9 463.8 496 466.4 497.8 467.4 501.4 469.6 504 471.1 521.6 481.4 539.1 499.8 550.2 519.8 558.7 535 563.1 546.8 566.2 562.8 566.9 566.3 568.1 575 569 582 569.8 589 570.6 594.8 570.8 594.9 570.9 595 571 591.5 571 587 571 582.5 571.1 576.9 571.4 574.6L571.6 570.5L611.6 570.5L651.5 570.5L651.5 517.2L651.5 464L647.1 464L642.7 464L642.3 459.4C642.2 456.9 642 451.2 642 446.8L642 438.8L638.2 432C636.1 428.3 633.1 422.5 631.4 419.3 629.8 416 627.9 412.5 627.3 411.5 626.7 410.5 622.6 402.9 618.2 394.5 613.9 386.1 609.3 377.4 608 375.2 605.5 370.9 595.4 351.8 590.8 342.5 589.1 339.3 585.6 332.6 582.8 327.5 574.1 311.8 564.8 294.5 561.8 288.5 558.1 281.3 548.3 262.8 543.6 254.5 541.7 251 539.4 246.8 538.5 245 536 239.9 527.5 224.9 526.1 223.1 524.9 221.5 524.8 221.5 520.8 221.5L516.8 221.5L512.1 214.8C509.5 211 507.3 208 507.2 208 507.2 208 505 211.3 502.4 215.3Z" fill="#ffffff" fill-rule="evenodd"/></svg>